<svg version="1.1" id="Layer_1" xmlns:x="ns_extend;" xmlns:i="ns_ai;" xmlns:graph="ns_graphs;" xmlns="http://www.w3.org/2000/svg" xmlns:xlink="http://www.w3.org/1999/xlink" x="0px" y="0px" viewBox="0 0 707.7 100" style="enable-background:new 0 0 707.7 100;" xml:space="preserve">
 <style type="text/css">
  .st0{fill:#14294C;}
	.st1{fill-rule:evenodd;clip-rule:evenodd;fill:#14294C;}
	.st2{fill:#59BEC9;}
 </style>
 <metadata>
  <sfw xmlns="ns_sfw;">
   <slices>
   </slices>
   <sliceSourceBounds bottomLeftOrigin="true" height="100" width="707.7" x="-536.6" y="0.4">
   </sliceSourceBounds>
  </sfw>
 </metadata>
 <g>
  <path class="st0" d="M680.7,81.3h5.5V20.5h-5.5V81.3z">
  </path>
  <path class="st0" d="M399.8,22v5.3c-8.2-0.6-12.1,2.6-12,10.7v1.7h12.1v5.3h-12.1v36.4h-5.5V45h-7.1v-5.3h7.1V38
		C382.2,27.1,388.4,21.1,399.8,22z">
  </path>
  <path class="st1" d="M140.1,44.5c3.1-3.8,7.4-6,13.6-6c11.3,0,20.5,9.6,20.5,22s-9.3,22-20.5,22c-6.1,0-10.5-2.2-13.6-6v4.9h-10.9
		V23h10.9V44.5z M140.1,60.5c0,7,5,11.7,11.6,11.7c6.7,0,11.7-4.7,11.7-11.7c0-7-5-11.7-11.7-11.7C145.1,48.8,140.1,53.5,140.1,60.5
		z">
  </path>
  <path class="st0" d="M191.6,39.6v7.2c2.1-5.7,7.4-8,12.8-8v12c-5.6-0.7-12.8,1.8-12.8,10.6v19.9h-10.7V39.6H191.6z">
  </path>
  <path class="st1" d="M219.7,64.8h31.6c0.2-1.5,0.4-2.8,0.4-4.4c0-12.2-8.8-22-21.3-22c-13.2,0-22.1,9.6-22.1,22
		c0,12.5,8.9,22,23,22c8.1,0,14.4-3.3,18.3-8.9l-8.7-5c-1.9,2.4-5.2,4.1-9.4,4.1C225.9,72.7,221.3,70.3,219.7,64.8z M219.6,56.5
		c1.3-5.3,5.2-8.4,11-8.4c4.6,0,9,2.4,10.4,8.4H219.6z">
  </path>
  <path class="st1" d="M290.9,44.5v-4.9h10.9v41.6h-10.9v-4.9c-3.1,3.8-7.6,6-13.7,6c-11.2,0-20.4-9.5-20.4-22c0-12.3,9.3-22,20.4-22
		C283.3,38.4,287.8,40.7,290.9,44.5z M267.7,60.5c0,7,4.9,11.7,11.6,11.7c6.7,0,11.7-4.7,11.7-11.7c0-7-4.9-11.7-11.7-11.7
		C272.6,48.8,267.7,53.5,267.7,60.5z">
  </path>
  <path class="st1" d="M341.7,23v21.5c-3.1-3.8-7.4-6-13.6-6c-11.3,0-20.5,9.6-20.5,22c0,12.5,9.3,22,20.5,22c6.1,0,10.5-2.2,13.6-6
		v4.9h10.9V23H341.7z M330.1,72.2c-6.7,0-11.7-4.7-11.7-11.7c0-7,4.9-11.7,11.7-11.7c6.6,0,11.6,4.7,11.6,11.7
		C341.7,67.4,336.7,72.2,330.1,72.2z">
  </path>
  <path class="st0" d="M409.5,30.8c2.2,0,4-1.9,4-4c0-2.2-1.8-4-4-4c-2.2,0-4,1.9-4,4C405.5,28.9,407.2,30.8,409.5,30.8z">
  </path>
  <path class="st0" d="M406.7,81.3h5.5V39.6h-5.5V81.3z">
  </path>
  <path class="st0" d="M428.9,46.1c3.3-5.3,8.1-7.5,14-7.5c10.2,0,16.4,6.6,16.4,17.1v25.5h-5.5V55.7c0-7.4-4.2-11.7-11.4-11.7
		c-7.3,0-13.6,4.3-13.6,15.5v21.7h-5.5V39.6h5.5v6.5H428.9z">
  </path>
  <path class="st1" d="M504.7,39.6v8.1c-3.5-5.6-9.5-9.2-16.9-9.2c-11.8,0-21.7,9.5-21.7,21.8c0,12.3,9.8,21.8,21.7,21.8
		c7.4,0,13.4-3.6,16.9-9.2v8.1h5.5V39.6H504.7z M488.2,76.8c-9.3,0-16.5-7.2-16.5-16.5s7.2-16.5,16.5-16.5c9.4,0,16.5,7.2,16.5,16.5
		S497.5,76.8,488.2,76.8z">
  </path>
  <path class="st0" d="M525.9,46.1c3.3-5.3,8.1-7.5,14-7.5c10.2,0,16.5,6.6,16.4,17.1v25.5h-5.5V55.7c0-7.4-4.2-11.7-11.4-11.7
		c-7.3,0-13.6,4.3-13.6,15.5v21.7h-5.5V39.6h5.5v6.5H525.9z">
  </path>
  <path class="st0" d="M585.8,82.2c8.2,0,15.3-4.2,18.8-10.9l-4.6-2.6c-2.7,4.9-7.8,8.1-14.2,8.1c-9.3,0-16.5-7.2-16.5-16.5
		s7.2-16.5,16.5-16.5c6.3,0,11.6,3.3,13.8,8.1l4.6-2.6c-3.1-6.5-10.1-10.9-18.4-10.9c-12.7,0-22,9.5-22,21.8
		C563.8,72.7,573.1,82.2,585.8,82.2z">
  </path>
  <path class="st1" d="M663.9,47.8v-8.1h5.5v41.6h-5.5v-8.1c-3.5,5.6-9.5,9.2-16.9,9.2c-11.8,0-21.7-9.5-21.7-21.8
		c0-12.3,9.9-21.8,21.7-21.8C654.4,38.6,660.4,42.2,663.9,47.8z M630.8,60.4c0,9.3,7.2,16.5,16.5,16.5c9.4,0,16.5-7.2,16.5-16.5
		s-7.2-16.5-16.5-16.5S630.8,51.2,630.8,60.4z">
  </path>
  <path class="st0" d="M619.5,26.8c0,2.1-1.8,4-4,4c-2.2,0-4-1.8-4-4c0-2.1,1.8-4,4-4C617.7,22.8,619.5,24.6,619.5,26.8z">
  </path>
  <path class="st0" d="M618.1,81.3h-5.1V39.6h5.1V81.3z">
  </path>
  <path class="st0" d="M699.7,73h-5.4v0.9h2.2v6.5h1v-6.5h2.2V73z">
  </path>
  <path class="st0" d="M707.7,73h-1.1l-2.4,3.9l-2.4-3.9h-1.1v7.4h1v-5.8l2.4,4h0.1l2.4-4v5.8h1V73z">
  </path>
  <path class="st2" d="M50,0C22.4,0,0,22.4,0,50c0,27.6,22.4,50,50,50c27.6,0,50-22.4,50-50C100,22.4,77.7,0,50,0z M59.6,86.4
		L59,86.8c-4.4,2.4-9.9,0.7-12.3-3.7L19.5,32.6c-2.4-4.4-0.7-9.9,3.7-12.3l0.7-0.4c4.4-2.4,9.9-0.7,12.3,3.7l27.2,50.5
		C65.7,78.6,64,84,59.6,86.4z M70.6,72.4L49.5,33.2c10.8-5.8,24.3-1.8,30.2,9.1C85.5,53,81.4,66.5,70.6,72.4z">
  </path>
 </g>
</svg>