<svg width="265px" height="88px" viewBox="0 0 265 88" version="1.1" xmlns="http://www.w3.org/2000/svg" xmlns:xlink="http://www.w3.org/1999/xlink">
 <!-- Generator: Sketch 52.5 (67469) - http://www.bohemiancoding.com/sketch -->
 <title>
  Combined Shape
 </title>
 <desc>
  Created with Sketch.
 </desc>
 <g id="FED---UI-Library" stroke="none" stroke-width="1" fill="none" fill-rule="evenodd">
  <g id="D_UI-Library_Current" transform="translate(-588.000000, -68.000000)" fill="#630C2C">
   <g id="HBD_Logo_Berkshire-Tag-Copy" transform="translate(588.000000, 68.500000)">
    <path d="M24.2119689,1.8577371 L24.2119689,0.627287854 L39.8771128,0.627287854 L39.8771128,1.8577371 C36.0274098,1.90599002 35.6158063,2.26788686 35.6158063,6.22462562 L35.6158063,28.5174709 C35.6158063,32.4742097 36.0274098,32.8361065 39.8771128,32.8843594 L39.8771128,34.1389351 L24.2119689,34.1389351 L24.2119689,32.8843594 C28.5216994,32.8361065 28.9333029,32.4742097 28.9333029,28.5174709 L28.9333029,17.1780366 L10.94381,17.1780366 L10.94381,28.5174709 C10.94381,32.4742097 11.3554134,32.8361065 15.6651439,32.8843594 L15.6651439,34.1389351 L-8.66862138e-13,34.1389351 L-8.66862138e-13,32.8843594 C3.84970306,32.8361065 4.26130653,32.4742097 4.26130653,28.5174709 L4.26130653,6.22462562 C4.26130653,2.26788686 3.82549109,1.90599002 -8.66862138e-13,1.8577371 L-8.66862138e-13,0.627287854 L15.6651439,0.627287854 L15.6651439,1.8577371 C11.3554134,1.90599002 10.94381,2.26788686 10.94381,6.22462562 L10.94381,15.5856905 L28.9333029,15.5856905 L28.9333029,6.22462562 C28.9333029,2.26788686 28.5216994,1.90599002 24.2119689,1.8577371 Z M72.490635,24.9950083 L69.8999543,34.1389351 L41.2087711,34.1389351 L41.2087711,32.8843594 C44.2110553,32.8361065 44.6226587,32.4742097 44.6226587,28.5174709 L44.6226587,6.22462562 C44.6226587,2.26788686 44.2110553,1.90599002 41.2087711,1.8577371 L41.2087711,0.627287854 L68.2051165,0.627287854 L71.715852,9.4093178 L70.892645,9.72296173 C66.7039744,4.4875208 63.919598,1.8577371 58.9319324,1.8577371 L51.3535861,1.8577371 L51.3535861,16.2371048 L54.0411147,16.2371048 C58.6898127,16.2371048 63.4595706,14.7171381 63.9680219,9.45757072 L65.0817725,9.45757072 L65.0817725,25.0673877 L63.9680219,25.0673877 C63.4595706,19.8560732 60.9657378,17.4675541 54.0411147,17.4675541 L51.3535861,17.4675541 L51.3535861,30.640599 C51.3535861,32.4500832 51.474646,32.9084859 53.0968479,32.9084859 L57.9392417,32.9084859 C65.6144358,32.9084859 67.1640018,30.4234609 71.4737323,24.4400998 L72.490635,24.9950083 Z M76.7519415,6.24875208 C76.7519415,2.29201331 76.3161261,1.90599002 72.0306076,1.88186356 L72.0306076,0.651414309 L88.1557789,0.651414309 L88.1557789,1.88186356 C83.8460484,1.93011647 83.434445,2.29201331 83.434445,6.24875208 L83.434445,28.5415973 C83.434445,32.4018303 84.160804,32.9084859 88.882138,32.9084859 C97.1142074,32.9084859 100.116492,31.485025 104.28095,24.1988353 L105.443125,24.343594 L102.707172,34.1630616 L72.0306076,34.1630616 L72.0306076,32.9084859 C76.3403381,32.8602329 76.7519415,32.4983361 76.7519415,28.5415973 L76.7519415,6.24875208 Z M117.161718,1.8577371 C111.859296,1.8577371 107.888534,6.70715474 105.564185,9.84359401 L104.547282,9.7953411 L107.23481,0.627287854 L134.03746,0.627287854 L134.03746,1.8577371 L113.190955,32.9084859 L120.357698,32.9084859 C129.461398,32.9084859 131.858383,26.8768719 134.449063,23.9334443 L135.199635,23.9334443 L132.366834,34.1630616 L104.910461,34.1630616 L104.910461,32.9084859 L125.345363,1.8577371 L117.161718,1.8577371 Z M197.521243,24.9950083 L194.930562,34.1389351 L166.239379,34.1389351 L166.239379,32.8843594 C169.241663,32.8361065 169.653266,32.4742097 169.653266,28.5174709 L169.653266,6.22462562 C169.653266,2.26788686 169.241663,1.90599002 166.239379,1.8577371 L166.239379,0.627287854 L193.235724,0.627287854 L196.74646,9.4093178 L195.923253,9.72296173 C191.734582,4.4875208 188.950206,1.8577371 183.96254,1.8577371 L176.384194,1.8577371 L176.384194,16.2371048 L179.071722,16.2371048 C183.72042,16.2371048 188.490178,14.7171381 188.99863,9.45757072 L190.11238,9.45757072 L190.11238,25.0673877 L188.99863,25.0673877 C188.490178,19.8560732 185.996345,17.4675541 179.071722,17.4675541 L176.384194,17.4675541 L176.384194,30.640599 C176.384194,32.4500832 176.505254,32.9084859 178.127455,32.9084859 L182.969849,32.9084859 C190.645043,32.9084859 192.194609,30.4234609 196.50434,24.4400998 L197.521243,24.9950083 Z M251.34445,18.6738769 L251.34445,18.6980033 L265,18.6980033 L265,19.952579 C263.014619,19.952579 262.506167,20.5557404 262.506167,22.172213 L262.506167,30.8336106 C258.85016,34.5973378 251.199178,34.8386023 246.380996,34.8386023 C237.059388,34.8386023 228.730471,27.09401 228.730471,17.4193012 C228.730471,7.74459235 237.035176,-7.10542736e-15 246.380996,-7.10542736e-15 C250.206487,-7.10542736e-15 252.797168,0.747920133 254.734125,1.51996672 C256.501599,2.21963394 258.123801,2.94342762 259.407035,2.94342762 C260.012334,2.94342762 260.278666,2.19550749 260.787117,0.868552413 L262.04614,0.868552413 L262.04614,11.8702163 L260.932389,11.8702163 C257.566926,5.50083195 253.571951,1.23044925 248.221106,1.23044925 C238.31841,1.27870216 235.776153,8.73377704 235.873001,17.3951747 C235.873001,24.7296173 238.269986,33.5599002 246.356784,33.5599002 C254.128826,33.5599002 256.065783,31.8469218 256.065783,24.2953411 C256.065783,20.2420965 255.605756,19.9767055 251.34445,19.9284526 L251.34445,18.6738769 Z M178.490635,44.0066556 C176.359982,44.0066556 175.657835,44.3926789 175.730471,46.781198 L175.730471,65.3103161 L174.519872,65.3103161 L156.481955,45.1888519 L156.385107,45.1888519 L156.385107,61.281198 C156.385107,63.4284526 157.862037,64.0798669 159.847419,64.0798669 L159.847419,64.8760399 L152.293285,64.8760399 L152.293285,64.0798669 C154.181818,63.9592346 155.222933,63.0665557 155.222933,61.281198 L155.222933,45.0199667 C155.222933,44.0790349 153.09228,44.030782 152.438556,43.9825291 L152.438556,43.1863561 L160.501142,43.1863561 L174.544084,59.0615641 L174.544084,46.8053245 C174.544084,44.4891847 173.599817,44.0066556 171.154408,44.0066556 L171.154408,43.2104825 L178.490635,43.2104825 L178.490635,44.0066556 Z M212.145272,65.3344426 C210.983097,65.3344426 209.724075,65.093178 208.634536,64.8760399 C207.593422,64.6347754 206.721791,64.3935108 206.382823,64.3935108 C206.019644,64.3935108 205.511192,64.8760399 205.148013,65.2620632 L204.25217,65.2620632 L204.25217,57.6139767 L204.905893,57.6139767 C206.358611,61.281198 208.126085,64.5141431 212.12106,64.5141431 C214.639105,64.5141431 217.132937,63.2836938 217.132937,61.015807 C217.132937,58.0723794 213.888534,57.0108153 210.692554,55.7079867 C207.472362,54.4051581 204.227958,52.8610649 204.227958,48.8801997 C204.227958,44.9234609 207.544998,42.7520799 211.176793,42.7520799 C212.605299,42.7520799 213.864322,43.0174709 214.8328,43.3069884 C215.777067,43.5965058 216.479214,43.8860233 216.769758,43.8860233 C217.350845,43.8860233 218.02878,43.4034942 218.319324,42.9209651 L218.973047,42.9209651 L218.973047,50.4484193 L218.222476,50.4484193 C217.302421,47.3602329 214.881224,43.5482529 211.225217,43.5482529 C209.360895,43.5482529 207.302878,44.6339434 207.302878,46.781198 C207.302878,49.3144759 210.571494,50.3036606 213.864322,51.6547421 C217.132937,52.9816972 220.401553,54.6464226 220.401553,58.530782 C220.401553,63.71797 216.91503,65.3344426 212.145272,65.3344426 Z M58.6171768,77.5665557 C58.7382366,77.4941764 59.1498401,77.2287854 59.5856556,77.2529118 C60.1909548,77.2529118 60.8688899,77.8078203 61.1110096,78.0008319 L60.5783463,78.8452579 C60.3604386,78.6522463 59.9004111,78.2420965 59.3435359,78.2420965 C58.7624486,78.2420965 58.0603015,78.7487521 57.7697579,79.4484193 C57.5518502,79.9792013 57.5518502,80.6547421 57.5518502,80.9925125 L57.5518502,83.7429285 L56.5591594,83.7429285 L56.5591594,77.3494176 L57.5518502,77.3494176 L57.5518502,78.7487521 C57.7213339,78.4833611 58.0845135,77.9284526 58.6171768,77.5665557 Z M62.7332115,74.0440932 L63.7259022,74.0440932 L63.7259022,83.7429285 L62.7332115,83.7429285 L62.7332115,74.0440932 Z M68.1809045,77.3494176 L65.0575605,80.4134775 L68.7377798,83.7429285 L67.4061215,83.7429285 L63.7743262,80.4134775 L66.9703061,77.3494176 L68.1809045,77.3494176 Z M72.9748744,80.437604 C73.3138419,80.6306156 74.1370489,81.0648918 74.1854728,82.0540765 C74.1854728,82.6813644 73.6770215,83.8394343 72.0790315,83.8394343 C71.3284605,83.8394343 70.6989493,83.6222962 70.0210142,83.2603993 L70.0210142,82.2470882 C71.0621288,82.874376 71.740064,82.9708819 72.0790315,82.9708819 C72.5874829,82.9708819 73.1685701,82.6572379 73.1685701,82.1264559 C73.1685701,81.5232945 72.5874829,81.2096506 71.740064,80.8236273 C70.941069,80.4617304 70.0452261,80.0033278 70.0452261,78.9417637 C70.0452261,78.1697171 70.6989493,77.2287854 72.1032435,77.2287854 C72.9748744,77.2287854 73.5801736,77.5665557 73.9191412,77.7595674 L73.9191412,78.7487521 C73.28963,78.3627288 72.7327547,78.0973378 72.1032435,78.0973378 C71.4495203,78.0973378 71.0137049,78.4833611 71.0137049,78.9176373 C71.0137049,79.4242928 71.4495203,79.6414309 72.9748744,80.437604 Z M79.6089539,77.2287854 C81.061672,77.2287854 81.9090909,78.266223 81.9333029,79.9309484 L81.9333029,83.718802 L80.9406122,83.718802 L80.9406122,80.0033278 C80.9406122,78.9176373 80.5290087,78.0732113 79.3910461,78.0732113 C79.0036546,78.0732113 78.2046597,78.1938436 77.5993604,79.2071547 L77.5993604,83.7429285 L76.6066697,83.7429285 L76.6066697,74.0440932 L77.5993604,74.0440932 L77.5993604,78.3144759 C78.0593878,77.687188 78.688899,77.2287854 79.6089539,77.2287854 Z M84.6208314,77.3494176 L85.6135222,77.3494176 L85.6135222,83.7429285 L84.6208314,83.7429285 L84.6208314,77.3494176 Z M85.1292828,74.7437604 C85.4924623,74.7437604 85.758794,75.0332779 85.7830059,75.3951747 C85.7830059,75.7570715 85.4924623,76.046589 85.1292828,76.046589 C84.7661032,76.046589 84.4755596,75.7570715 84.4755596,75.3951747 C84.4755596,75.0332779 84.7661032,74.7437604 85.1292828,74.7437604 Z M90.5043399,77.5665557 C90.6253997,77.4941764 91.0370032,77.2287854 91.4728186,77.2529118 C92.0781179,77.2529118 92.756053,77.8078203 92.9981727,78.0008319 L92.4655094,78.8452579 C92.2476016,78.6522463 91.7875742,78.2420965 91.2306989,78.2420965 C90.6496117,78.2420965 89.9474646,78.7487521 89.656921,79.4484193 C89.4390132,79.9792013 89.4390132,80.6547421 89.4390132,80.9925125 L89.4390132,83.7429285 L88.4463225,83.7429285 L88.4463225,77.3494176 L89.4390132,77.3494176 L89.4390132,78.7487521 C89.608497,78.4833611 89.9716766,77.9284526 90.5043399,77.5665557 Z M114.086798,78.3627288 L114.086798,74.0440932 L115.152124,74.0440932 L115.152124,83.7429285 L114.086798,83.7429285 L114.086798,79.3036606 L108.106441,79.3036606 L108.106441,83.7429285 L107.041115,83.7429285 L107.041115,74.0440932 L108.106441,74.0440932 L108.106441,78.3627288 L114.086798,78.3627288 Z M126.749657,81.547421 C126.749657,82.3918469 126.822293,82.9467554 127.693924,82.922629 C128.202376,82.922629 128.517131,82.7537438 129.00137,82.5366057 L129.00137,83.453411 C128.735039,83.5740433 128.202376,83.8153078 127.500228,83.8153078 C126.216994,83.8153078 125.756967,82.922629 125.756967,81.9093178 L125.756967,78.1697171 L124.667428,78.1697171 L124.667428,78.0249584 L126.749657,75.8294509 L126.749657,77.3252912 L128.686615,77.3252912 L128.686615,78.1938436 L126.749657,78.1938436 L126.749657,81.547421 Z M133.9164,77.2287854 C135.344906,77.2287854 136.216537,78.266223 136.240749,79.9309484 L136.240749,83.718802 L135.248058,83.718802 L135.248058,80.0033278 C135.248058,78.9176373 134.836455,78.0732113 133.698492,78.0732113 C133.311101,78.0732113 132.512106,78.1938436 131.906807,79.2071547 L131.906807,83.7429285 L130.914116,83.7429285 L130.914116,74.0440932 L131.906807,74.0440932 L131.906807,78.3144759 C132.366834,77.687188 132.996345,77.2287854 133.9164,77.2287854 Z M152.680676,81.8851913 L154.617634,77.3494176 L155.658748,77.3494176 L152.85016,83.8635607 L152.48698,83.8635607 L150.550023,79.0382696 L148.637277,83.8635607 L148.249886,83.8635607 L145.465509,77.3494176 L146.482412,77.3494176 L148.41937,81.8851913 L150.235267,77.3494176 L150.88899,77.3494176 L152.680676,81.8851913 Z M166.844678,81.3785358 L168.781635,77.3494176 L169.846962,77.3494176 L165.174052,87 L164.108725,87 L166.336227,82.4159734 L163.745546,77.3494176 L164.810873,77.3494176 L166.844678,81.3785358 Z M177.231613,78.9176373 C177.231613,81.233777 178.974874,82.8502496 181.275011,82.7778702 C182.558246,82.7778702 183.671996,82.4159734 184.809959,81.7645591 L184.809959,82.922629 C183.744632,83.5016639 182.558246,83.8153078 181.323435,83.8153078 C178.200091,83.8153078 176.117862,81.5715474 176.117862,78.8693844 C176.117862,75.8294509 178.635907,73.875208 181.250799,73.875208 C182.437186,73.875208 183.623572,74.2129784 184.713111,74.6955075 L184.713111,75.8535774 C183.59936,75.2745424 182.558246,74.9126456 181.323435,74.9126456 C178.999086,74.9126456 177.231613,76.6014975 177.231613,78.9176373 Z M203.211055,77.2287854 C205.026953,77.2287854 205.414344,78.8211314 205.414344,79.906822 L205.414344,83.7429285 L204.421654,83.7429285 L204.421654,79.906822 C204.421654,79.1830283 204.203746,78.0973378 203.041571,78.0973378 C202.460484,78.0973378 201.709913,78.4592346 201.249886,79.2554077 L201.249886,83.7429285 L200.257195,83.7429285 L200.257195,79.9550749 C200.257195,78.7728785 199.797168,78.0973378 198.780265,78.0973378 C197.98127,78.0973378 197.497031,78.5798669 197.061215,79.1830283 L197.061215,83.7429285 L196.068524,83.7429285 L196.068524,77.3494176 L197.061215,77.3494176 L197.061215,78.3386023 C197.666514,77.6630616 198.174966,77.2287854 199.070809,77.2287854 C200.281407,77.2287854 200.838282,78.1214642 201.031978,78.5557404 C201.879397,77.3976705 202.678392,77.2287854 203.211055,77.2287854 Z M226.672453,77.2287854 C228.125171,77.2287854 228.97259,78.266223 228.996802,79.9309484 L228.996802,83.718802 L228.004111,83.718802 L228.004111,80.0033278 C228.004111,78.9176373 227.592508,78.0732113 226.454545,78.0732113 C226.067154,78.0732113 225.268159,78.1938436 224.66286,79.2071547 L224.66286,83.7429285 L223.670169,83.7429285 L223.670169,77.3494176 L224.66286,77.3494176 L224.66286,78.3144759 C225.122887,77.687188 225.752398,77.2287854 226.672453,77.2287854 Z M233.839196,81.3785358 L235.776153,77.3494176 L236.84148,77.3494176 L232.16857,87 L231.127455,87 L233.330745,82.4159734 L230.740064,77.3494176 L231.805391,77.3494176 L233.839196,81.3785358 Z M139.07355,6.24875208 C139.07355,2.29201331 138.661946,1.90599002 134.812243,1.8577371 L134.812243,0.627287854 L149.557332,0.627287854 C155.198721,0.627287854 163.890818,1.640599 163.890818,8.44425957 C163.890818,13.1006656 159.871631,15.4891847 155.755596,16.2371048 L155.755596,16.3577371 C160.47693,17.2745424 165.827775,19.6630616 165.827775,25.2845258 C165.827775,33.0049917 158.249429,34.1630616 151.49429,34.1630616 L134.812243,34.1630616 L134.812243,32.9084859 C138.661946,32.8602329 139.07355,32.4983361 139.07355,28.5415973 L139.07355,6.24875208 Z M145.780265,3.76372712 L145.780265,15.609817 L150.041571,15.609817 C154.762905,15.5133111 157.063042,12.6905158 157.063042,8.22712146 C157.063042,3.30532446 154.32709,1.88186356 148.225674,1.88186356 C146.046597,1.88186356 145.780265,1.97836938 145.780265,3.76372712 Z M145.780265,16.8402662 L145.780265,30.1580699 C145.780265,32.81198 148.128826,32.9084859 150.767931,32.9084859 C156.239836,32.9084859 158.685244,30.375208 158.685244,25.0432612 C158.685244,18.7221298 154.617634,16.8402662 148.879397,16.8402662 L145.780265,16.8402662 Z M213.283234,32.9084859 L213.259022,32.9084859 L213.259022,34.0906822 L197.835998,34.0906822 L197.835998,32.8361065 C201.492005,32.7878536 201.903609,32.4259567 201.903609,28.469218 L201.903609,6.17637271 C201.903609,2.21963394 201.492005,1.8577371 197.835998,1.80948419 L197.835998,0.579034942 L211.87894,0.579034942 C222.871174,0.579034942 227.592508,4.46339434 227.592508,10.3502496 C227.592508,14.6447587 223.524897,16.7196339 219.772042,17.0815308 L219.772042,17.2262895 C220.425765,17.515807 221.031064,17.8777038 221.394244,18.4808652 L229.21471,31.1955075 C229.771585,32.0881864 230.44952,32.9084859 233.693924,32.9084859 L233.693924,34.1630616 L222.750114,34.1630616 L216.140247,21.2554077 C215.123344,19.2287854 214.203289,17.8535774 212.532663,17.8535774 L208.610324,17.8535774 L208.610324,28.5415973 C208.610324,32.4983361 209.021928,32.8602329 213.283234,32.9084859 Z M208.610324,1.8577371 L208.610324,16.5748752 L211.903152,16.5748752 C217.617177,16.5024958 220.764733,14.2828619 220.764733,9.21630616 C220.764733,4.14975042 217.641389,1.8577371 211.903152,1.8577371 L208.610324,1.8577371 Z M45.954317,64.1281198 C48.351302,64.0798669 48.6176336,63.8386023 48.6418456,61.3053245 L48.6418456,46.8535774 C48.6418456,44.2720466 48.3755139,44.030782 45.978529,44.0066556 L45.978529,43.2104825 L58.0118776,43.2104825 C64.2827775,43.2104825 70.0210142,47.4808652 70.0210142,54.0673877 C70.0210142,60.750416 65.1059845,64.9242928 58.5687529,64.9242928 L45.954317,64.9242928 L45.954317,64.1281198 Z M52.975788,45.1164725 L52.975788,61.281198 C52.9031521,63.8627288 53.4358154,64.1281198 56.5591594,64.1281198 C62.6121517,64.1281198 65.3723161,59.7371048 65.3723161,54.0673877 C65.3723161,48.3976705 62.0068524,44.0066556 56.5591594,44.0066556 C53.0968479,44.0066556 52.975788,44.2237937 52.975788,45.1164725 Z M127.088625,61.281198 C127.088625,63.8386023 127.354957,64.0798669 130.090909,64.1281198 L130.090909,64.9242928 L119.631339,64.9242928 L119.631339,64.1281198 C122.415715,64.0798669 122.682047,63.8386023 122.682047,61.281198 L122.682047,45.5266223 L122.560987,45.5266223 L114.595249,64.9725458 L114.086798,64.9725458 L106.24212,45.8643927 L106.193696,45.8643927 L106.193696,61.3294509 C106.193696,63.4767055 107.694838,64.1281198 109.680219,64.1281198 L109.680219,64.9242928 L104.014619,64.9242928 L102.126085,64.9242928 L93.4824121,64.9242928 L93.4824121,64.1281198 C95.5404294,64.1281198 96.1457286,63.6214642 96.1457286,62.8976705 C96.1457286,62.2221298 95.5404294,61.2088186 95.2740978,60.6780366 L94.1603472,58.4342762 L84.5239836,58.4342762 L83.6039287,60.6539101 C83.2165372,61.546589 82.9259936,62.4633943 82.9259936,62.8252912 C82.9259936,63.5973378 83.7734125,64.1039933 85.5408862,64.1039933 L85.5408862,64.9001664 L79.8510735,64.9001664 L78.5194153,64.9001664 L69.391503,64.9001664 L69.391503,64.1039933 C72.1758794,64.0557404 72.4422111,63.8144759 72.4422111,61.2570715 L72.4422111,46.8053245 C72.4422111,44.2237937 72.1758794,43.9825291 69.391503,43.9584027 L69.391503,43.1622296 L79.8510735,43.1622296 L79.8510735,43.9584027 C77.0666971,44.0066556 76.8003655,44.2479201 76.8003655,46.8053245 L76.8003655,61.2570715 C76.8003655,63.4043261 77.0182732,63.9351082 78.713111,64.0557404 C80.9164002,63.5490849 81.5216994,62.5840266 82.9744175,59.3269551 L88.6158063,46.8294509 C88.4705345,46.4434276 88.2768387,45.9608985 87.9862951,45.8402662 C88.9789858,44.9958403 89.9958885,44.1272879 90.7948835,43.0898502 C90.9885793,42.8003328 91.0854271,42.7520799 91.206487,42.7520799 C91.3517588,42.7520799 91.4243947,42.8485857 91.6907264,43.3793677 L100.697579,61.9084859 C101.351302,63.2595674 101.908177,63.71797 102.973504,63.9351082 C104.329374,63.6214642 105.104157,62.7770383 105.104157,61.281198 L105.104157,45.0199667 C105.104157,44.0790349 102.973504,44.030782 102.319781,43.9825291 L102.319781,43.1863561 L109.801279,43.1863561 L116.144815,58.6996672 L122.439927,43.1863561 L130.139333,43.1863561 L130.139333,43.9825291 C127.354957,44.030782 127.088625,44.2720466 127.088625,46.8294509 L127.088625,61.281198 Z M84.959799,57.3968386 L93.6034719,57.3968386 L89.1484696,48.1081531 L84.959799,57.3968386 Z M129.751942,54.0673877 C129.751942,47.7945092 135.151211,42.7762063 141.179991,42.7762063 C147.184559,42.7762063 152.583828,47.7945092 152.583828,54.0673877 C152.583828,60.3402662 147.208771,65.3585691 141.179991,65.3585691 C135.151211,65.3585691 129.751942,60.3402662 129.751942,54.0673877 Z M147.959342,54.0673877 C147.959342,49.3144759 146.409776,43.5723794 141.179991,43.5965058 C135.925994,43.5965058 134.376428,49.3144759 134.376428,54.0673877 C134.376428,58.796173 135.950206,64.5382696 141.179991,64.5382696 C146.409776,64.5382696 147.959342,58.8202995 147.959342,54.0673877 Z M178.756967,64.1281198 C181.153952,64.0798669 181.420283,63.8386023 181.420283,61.3053245 L181.420283,46.8535774 C181.420283,44.2720466 181.153952,44.030782 178.756967,44.0066556 L178.756967,43.2104825 L190.814527,43.2104825 C197.061215,43.2104825 202.823664,47.4808652 202.823664,54.0673877 C202.823664,60.750416 197.908634,64.9242928 191.371402,64.9242928 L178.756967,64.9242928 L178.756967,64.1281198 Z M185.754226,45.1164725 L185.754226,61.281198 C185.68159,63.8627288 186.214253,64.1281198 189.337597,64.1281198 C195.390589,64.1281198 198.150754,59.7371048 198.150754,54.0673877 C198.150754,48.3976705 194.78529,44.0066556 189.337597,44.0066556 C185.875286,44.0066556 185.754226,44.2237937 185.754226,45.1164725 Z M225.752398,62.2703827 C225.752398,63.6697171 224.66286,64.7554077 223.306989,64.7554077 C221.951119,64.7554077 220.837369,63.6697171 220.837369,62.2703827 C220.837369,60.8951747 221.951119,59.7853577 223.306989,59.7853577 C224.66286,59.7853577 225.752398,60.8951747 225.752398,62.2703827 Z M223.306989,64.3693844 C224.42074,64.3935108 225.292371,63.452579 225.292371,62.2703827 C225.292371,61.1123128 224.42074,60.171381 223.306989,60.171381 C222.217451,60.171381 221.321608,61.1123128 221.321608,62.2703827 C221.321608,63.452579 222.193239,64.3693844 223.306989,64.3693844 Z M223.742805,62.3668885 C223.984925,62.4151414 224.154408,62.6322795 224.227044,63.0183028 C224.275468,63.452579 224.348104,63.5973378 224.396528,63.6938436 L223.936501,63.6938436 C223.863865,63.5973378 223.791229,63.3560732 223.742805,62.9941764 C223.670169,62.6322795 223.500685,62.5116473 223.137506,62.5116473 L222.82275,62.5116473 L222.82275,63.6938436 L222.386935,63.6938436 L222.386935,60.9434276 C222.604842,60.8951747 222.82275,60.8710483 223.161718,60.8710483 C223.597533,60.8710483 223.863865,60.9675541 224.033349,61.0881864 C224.17862,61.2088186 224.275468,61.4018303 224.275468,61.6672213 C224.275468,62.0291181 224.033349,62.2462562 223.742805,62.3668885 Z M223.161718,62.1980033 C223.524897,62.1980033 223.839653,62.0532446 223.839653,61.7154742 C223.839653,61.4742097 223.670169,61.2329451 223.161718,61.2329451 C223.016446,61.2329451 222.919598,61.2329451 222.846962,61.2570715 L222.846962,62.1980033 L223.161718,62.1980033 Z M32.2019187,82.7296173 C32.2019187,82.9950083 32.2503426,83.0673877 32.3471905,83.0432612 C32.4682503,83.0432612 32.7830059,82.8985025 33.1703974,82.5848586 L33.1703974,83.2603993 C32.3714025,83.8153078 32.0808588,83.8394343 31.9113751,83.8394343 C31.3787117,83.8394343 31.2576519,83.4051581 31.209228,83.1156406 C30.410233,83.718802 29.9259936,83.8394343 29.3449063,83.8394343 C28.4490635,83.8394343 27.6984925,83.1638935 27.6984925,82.2229617 C27.6984925,81.1855241 28.5459114,80.3410982 31.209228,79.8826955 L31.209228,79.3036606 C31.209228,78.8935108 31.160804,78.0732113 29.9502056,78.0732113 C29.1027867,78.0732113 28.4974874,78.5074875 27.9406122,79.0141431 L27.9406122,78.0008319 C28.2553677,77.7354409 28.9817268,77.2287854 30.0228415,77.2287854 C31.8629511,77.2287854 32.2019187,78.5074875 32.2019187,79.2312812 L32.2019187,82.7296173 Z M31.2334399,82.4642263 L31.209228,82.4642263 L31.209228,80.5099834 C29.587026,80.8236273 28.6911832,81.3544093 28.6911832,82.1505824 C28.6911832,82.922629 29.4175423,83.1397671 29.7807218,83.1397671 C30.4828689,83.1397671 30.9913202,82.6813644 31.2334399,82.4642263 Z M44.1384194,78.6522463 C46.0269529,78.9900166 46.4385564,80.3169717 46.4385564,81.1372712 C46.4385564,82.2470882 45.5911375,83.7429285 43.5815441,83.7429285 L40.0465966,83.7429285 L40.0465966,74.0440932 L42.4920055,74.0440932 C43.9447236,74.0440932 45.5911375,74.5990017 45.5911375,76.5532446 C45.5911375,77.952579 44.5258109,78.5074875 44.1384194,78.6522463 Z M41.1119233,74.985025 L41.1119233,78.3627288 L42.1772499,78.3627288 C43.7994518,78.3627288 44.453175,77.7113145 44.453175,76.6497504 C44.453175,75.4434276 43.7510279,74.985025 42.1772499,74.985025 L41.1119233,74.985025 Z M42.855185,82.8019967 C44.9374143,82.8019967 45.3005939,81.8610649 45.3248058,81.0648918 C45.3248058,80.2445923 44.7679306,79.3036606 42.830973,79.3036606 L41.1361352,79.3036606 L41.1361352,82.8019967 L42.855185,82.8019967 Z M51.3051622,77.2287854 C52.9031521,77.2287854 54.1379625,78.5074875 54.1379625,80.3893511 L54.1379625,80.6064892 L49.3924166,80.6064892 C49.3924166,82.1505824 50.4577433,82.9950083 51.6925537,82.9950083 C52.9515761,82.9950083 53.7263591,82.3677205 54.0411147,82.1023295 L54.0411147,83.1156406 C53.6295112,83.3810316 52.9273641,83.8876872 51.5714938,83.8876872 C49.4408406,83.8876872 48.3755139,82.2470882 48.3755139,80.5341098 C48.3755139,78.3144759 49.852444,77.2287854 51.3051622,77.2287854 Z M49.4408406,79.8826955 L53.1210598,79.8826955 C52.975788,78.5074875 52.0315212,78.0732113 51.3293741,78.0732113 C50.5303792,78.0732113 49.6829603,78.5798669 49.4408406,79.8826955 Z M97.0415715,77.2287854 C98.6153495,77.2287854 99.8501599,78.5074875 99.8743719,80.3893511 L99.8743719,80.6064892 L95.1288259,80.6064892 C95.1288259,82.1505824 96.1941526,82.9950083 97.428963,82.9950083 C98.6879854,82.9950083 99.4627684,82.3677205 99.777524,82.1023295 L99.777524,83.1156406 C99.3659205,83.3810316 98.6637734,83.8876872 97.3079032,83.8876872 C95.1772499,83.8876872 94.1119233,82.2470882 94.1119233,80.5341098 C94.1119233,78.3144759 95.5888534,77.2287854 97.0415715,77.2287854 Z M95.1530379,79.8826955 L98.8332572,79.8826955 C98.6879854,78.5074875 97.7437186,78.0732113 97.0415715,78.0732113 C96.2425765,78.0732113 95.3951576,78.5798669 95.1530379,79.8826955 Z M122.391503,82.7296173 C122.391503,82.9950083 122.415715,83.0673877 122.536775,83.0432612 C122.657835,83.0432612 122.97259,82.8985025 123.359982,82.5848586 L123.359982,83.2603993 C122.560987,83.8153078 122.270443,83.8394343 122.100959,83.8394343 C121.568296,83.8394343 121.447236,83.4051581 121.398812,83.1156406 C120.599817,83.718802 120.115578,83.8394343 119.534491,83.8394343 C118.638648,83.8394343 117.888077,83.1638935 117.888077,82.2229617 C117.888077,81.1855241 118.735496,80.3410982 121.398812,79.8826955 L121.398812,79.3036606 C121.398812,78.8935108 121.350388,78.0732113 120.13979,78.0732113 C119.292371,78.0732113 118.687072,78.5074875 118.130196,79.0141431 L118.130196,78.0008319 C118.444952,77.7354409 119.171311,77.2287854 120.212426,77.2287854 C122.052535,77.2287854 122.391503,78.5074875 122.391503,79.2312812 L122.391503,82.7296173 Z M121.398812,82.4642263 L121.3746,82.4642263 L121.3746,80.5099834 C119.752398,80.8236273 118.856556,81.3544093 118.856556,82.1505824 C118.856556,82.922629 119.582915,83.1397671 119.946094,83.1397671 C120.648241,83.1397671 121.156693,82.6813644 121.398812,82.4642263 Z M143.092736,82.7296173 C143.092736,82.9950083 143.116948,83.0673877 143.238008,83.0432612 C143.359068,83.0432612 143.673824,82.8985025 144.061215,82.5848586 L144.061215,83.2603993 C143.26222,83.8153078 142.971677,83.8394343 142.802193,83.8394343 C142.269529,83.8394343 142.14847,83.4051581 142.100046,83.1156406 C141.301051,83.718802 140.816811,83.8394343 140.235724,83.8394343 C139.339881,83.8394343 138.58931,83.1638935 138.58931,82.2229617 C138.58931,81.1855241 139.436729,80.3410982 142.100046,79.8826955 L142.100046,79.3036606 C142.100046,78.8935108 142.051622,78.0732113 140.841023,78.0732113 C139.993604,78.0732113 139.388305,78.5074875 138.83143,79.0141431 L138.83143,78.0008319 C139.146185,77.7354409 139.872545,77.2287854 140.913659,77.2287854 C142.753769,77.2287854 143.092736,78.5074875 143.092736,79.2312812 L143.092736,82.7296173 Z M142.100046,82.4642263 L142.075834,82.4642263 L142.075834,80.5099834 C140.453632,80.8236273 139.557789,81.3544093 139.557789,82.1505824 C139.557789,82.922629 140.284148,83.1397671 140.647328,83.1397671 C141.349475,83.1397671 141.857926,82.6813644 142.100046,82.4642263 Z M161.760164,82.7296173 C161.760164,82.9950083 161.784376,83.0673877 161.905436,83.0432612 C162.026496,83.0432612 162.341252,82.8985025 162.728643,82.5848586 L162.728643,83.2603993 C161.929648,83.8153078 161.639105,83.8394343 161.469621,83.8394343 C160.936958,83.8394343 160.815898,83.4051581 160.767474,83.1156406 C159.968479,83.718802 159.484239,83.8394343 158.903152,83.8394343 C158.007309,83.8394343 157.256738,83.1638935 157.256738,82.2229617 C157.256738,81.1855241 158.104157,80.3410982 160.767474,79.8826955 L160.767474,79.3036606 C160.767474,78.8935108 160.71905,78.0732113 159.508451,78.0732113 C158.661032,78.0732113 158.055733,78.5074875 157.498858,79.0141431 L157.498858,78.0008319 C157.813614,77.7354409 158.539973,77.2287854 159.581087,77.2287854 C161.421197,77.2287854 161.760164,78.5074875 161.760164,79.2312812 L161.760164,82.7296173 Z M160.767474,82.4642263 L160.743262,82.4642263 L160.743262,80.5099834 C159.12106,80.8236273 158.225217,81.3544093 158.225217,82.1505824 C158.225217,82.922629 158.951576,83.1397671 159.314756,83.1397671 C160.016903,83.1397671 160.525354,82.6813644 160.767474,82.4642263 Z M190.23344,77.2287854 C192.07355,77.2287854 193.574692,78.7004992 193.574692,80.5341098 C193.574692,82.3677205 192.07355,83.8635607 190.23344,83.8635607 C188.39333,83.8635607 186.9164,82.3677205 186.9164,80.5341098 C186.9164,78.7004992 188.39333,77.2287854 190.23344,77.2287854 Z M190.257652,82.9950083 C191.58931,82.9950083 192.557789,81.8851913 192.582001,80.5341098 C192.582001,79.1830283 191.58931,78.0973378 190.257652,78.0973378 C188.925994,78.0973378 187.933303,79.1830283 187.933303,80.5341098 C187.933303,81.8851913 188.925994,82.9950083 190.257652,82.9950083 Z M210.40201,77.3494176 C212.629511,77.3494176 213.936958,78.4833611 213.936958,80.5341098 C213.936958,82.3194676 212.823207,83.8635607 210.76519,83.8635607 C209.990407,83.8635607 209.409319,83.5981697 209.142988,83.4775374 L209.142988,86.8793677 L208.150297,86.8793677 L208.150297,77.3494176 L210.40201,77.3494176 Z M210.595706,82.9950083 C212.169484,82.9950083 212.920055,81.8369384 212.920055,80.5582363 C212.920055,79.0382696 211.87894,78.21797 210.377798,78.21797 L209.118776,78.21797 L209.118776,82.5848586 C209.360895,82.7054908 209.869347,82.9950083 210.595706,82.9950083 Z M220.619461,82.7296173 C220.619461,82.9950083 220.643673,83.0673877 220.764733,83.0432612 C220.885793,83.0432612 221.200548,82.8985025 221.58794,82.5848586 L221.58794,83.2603993 C220.788945,83.8153078 220.498401,83.8394343 220.328917,83.8394343 C219.796254,83.8394343 219.675194,83.4051581 219.62677,83.1156406 C218.827775,83.718802 218.343536,83.8394343 217.762449,83.8394343 C216.866606,83.8394343 216.116035,83.1638935 216.116035,82.2229617 C216.116035,81.1855241 216.963454,80.3410982 219.62677,79.8826955 L219.62677,79.3036606 C219.62677,78.8935108 219.578346,78.0732113 218.367748,78.0732113 C217.520329,78.0732113 216.91503,78.5074875 216.358154,79.0141431 L216.358154,78.0008319 C216.67291,77.7354409 217.399269,77.2287854 218.440384,77.2287854 C220.280493,77.2287854 220.619461,78.5074875 220.619461,79.2312812 L220.619461,82.7296173 Z M219.62677,82.4642263 L219.602558,82.4642263 L219.602558,80.5099834 C217.980356,80.8236273 217.084513,81.3544093 217.084513,82.1505824 C217.084513,82.922629 217.810873,83.1397671 218.174052,83.1397671 C218.876199,83.1397671 219.384651,82.6813644 219.62677,82.4642263 Z" id="Combined-Shape">
    </path>
   </g>
  </g>
 </g>
</svg>