<svg xmlns="http://www.w3.org/2000/svg" viewBox="0 0 245.75 82.99"><defs><style>.cls-1{fill:#fff;}.cls-2{fill:#00853e;}</style></defs><title>LeafFilter Logo</title><g id="Leaf"><path id="Top_Leaf" data-name="Top Leaf" class="cls-2" d="M151.07,5.89c-.94-.54-16.74-4.13-23.63.58-5.63,8.08-6.27,15.81-2.85,17.87a5.74,5.74,0,0,0,4.89.84v.41a24.22,24.22,0,0,1-6.34,13.54c-3,3.29-6.44,5.75-9.69,6.13-1.12.13-4.49.24-4.49.24L111,37.66l2.5-.07a15.66,15.66,0,0,0,8.67-4.43c1.83-2,2.38-2.35,2.82-3.67l-.14-.13-.13.14c-3.64,2.44-6.95,5.36-11,5.57l-2.52,0,.76-3.37c1.28-9.14,6.51-18.31,12.86-27.36l.82-1.06-.45.54c-1.12,1.08-2.08,2-3.13,3.11A49.42,49.42,0,0,0,114,20.07l-.45,1-.25-.46c-1.21-1.53-2.81-7.49-2.26-9.92l.19-.35-.27,0-.2.21c-1.53,1.68-1.65,7.75.27,12.87l1.21,2.16c-1.75,4.06-3.28,10.71-4.45,14.77l-1.15-.44-1-.63c-3.22-2.72-4.56-6.44-6.55-12.93l0,.08,0,.25c-1.75,4.58,1.07,11,6.21,15.74a22.42,22.42,0,0,0,3.19,2.26l-.71,1.75c.46,19.4-15,31.1-20.12,33.79-6.54,3.46-11,2.59-13.5.3a5.9,5.9,0,0,1,.14-8.28,3.79,3.79,0,0,1,4.71-.65l.34.19a2.81,2.81,0,0,0,.45,3.71c1.32,1.23,3.46.46,5.92-.44,9-3.28,19.84-19.58,16.06-25.13l-.5-1.44-.5-.17a15.49,15.49,0,0,1-5.84-2.82c-6.18-4.83-7.49-15.28,4.27-28.14l.39-.43L102,21.44l.19-.48a25.22,25.22,0,0,1,6.47-12.58,23.83,23.83,0,0,1,9.52-6.46S133.25-4.4,151.07,5.89Z"></path></g><g id="Registered_Mark" data-name="Registered Mark"><path id="Registered_Mark-2" data-name="Registered Mark" d="M245.75,14.76a2.59,2.59,0,1,1-2.57-2.5A2.53,2.53,0,0,1,245.75,14.76Zm-4.53,0a1.94,1.94,0,0,0,2,2,1.92,1.92,0,0,0,1.92-2,1.94,1.94,0,1,0-3.88,0Zm1.53,1.29h-.59v-2.5a7,7,0,0,1,1-.08,1.48,1.48,0,0,1,.89.2.62.62,0,0,1,.25.53.65.65,0,0,1-.53.59v0a.75.75,0,0,1,.45.62,1.51,1.51,0,0,0,.2.62h-.65a1.91,1.91,0,0,1-.2-.6.46.46,0,0,0-.53-.39h-.29Zm0-1.41h.29c.32,0,.59-.11.59-.36s-.17-.38-.56-.38a1.46,1.46,0,0,0-.32,0Z"></path></g><g id="LeafFilter_Letters" data-name="LeafFilter Letters"><path id="L" d="M1.46,22.7q0-2.12,0-3.88t-.14-3.5q-.09-1-.16-1.67a10.77,10.77,0,0,0-.19-1.2c-.08-.35-.17-.66-.26-.94s-.21-.58-.33-.89a3.39,3.39,0,0,0,.57.09l.95.09,1.09.07,1,0A19.08,19.08,0,0,0,5.9,10.8l1.82-.19c-.09.19-.19.4-.28.63a8,8,0,0,0-.3,1Q7,13,6.8,14.11t-.28,2.94q-.12,1.79-.19,4.38t-.07,6.21q0,2.5,0,4.26t.07,3.18q0,1.41.12,2.61t.16,2.52q1.22.24,2.52.4a28.26,28.26,0,0,0,3.41.16A25.87,25.87,0,0,0,16,40.57a12.16,12.16,0,0,0,2.23-.49,5.29,5.29,0,0,0,1.46-.73c.37-.28.74-.58,1.08-.89-.13.66-.23,1.22-.31,1.67s-.15.89-.21,1.29-.12.83-.17,1.27l-.16,1.55-2.07-.1L16,44.05q-1,0-2.35,0h-7q-1.42,0-2.48,0l-2,.09L0,44.24a12.33,12.33,0,0,0,.61-1.32A7.55,7.55,0,0,0,1,41.28q.14-.89.23-2.19t.14-2.68q0-1.39.07-2.75c0-.91,0-1.71,0-2.4Z"></path><path id="e-3" data-name="e" d="M28.65,31.35q.09,1.27.35,2.8a9.7,9.7,0,0,0,1.2,3.18,7.24,7.24,0,0,0,3.62,3.29,9.16,9.16,0,0,0,2.14.59,14.63,14.63,0,0,0,2.19.16,13.49,13.49,0,0,0,2.73-.23,7.15,7.15,0,0,0,1.88-.63A6.17,6.17,0,0,0,44,39.63c.34-.31.66-.61.94-.89q-.28.85-.45,1.43t-.28,1.11a8,8,0,0,0-.16,1c0,.35-.06.75-.09,1.22q-1,.28-2.63.61a21,21,0,0,1-4,.33,17,17,0,0,1-5.76-.92,11.24,11.24,0,0,1-7-6.91,16.25,16.25,0,0,1-.94-5.72,20.83,20.83,0,0,1,.68-5.29,10.55,10.55,0,0,1,2.52-4.59,11.72,11.72,0,0,1,8.7-3.39,13.16,13.16,0,0,1,4.4.75,8.13,8.13,0,0,1,3.6,2.49,8.94,8.94,0,0,1,1.76,3.51,16.27,16.27,0,0,1,.54,4.16c0,.25,0,.57,0,1s-.05,1-.12,1.81Zm12.18-2.73q0-1.41-.14-3a6.05,6.05,0,0,0-1.08-2.94A5,5,0,0,0,37.77,21a6.23,6.23,0,0,0-5-.16,7,7,0,0,0-1.62,1,6.16,6.16,0,0,0-1.29,1.58,8.1,8.1,0,0,0-.75,1.76A10.15,10.15,0,0,0,28.74,27q-.09.9-.14,1.65Z"></path><path id="a" d="M70.84,37.84q0,1.32,0,2.21a9.05,9.05,0,0,0,.21,1.6A6.33,6.33,0,0,0,71.57,43a7.17,7.17,0,0,0,.87,1.34L71,44.15a12,12,0,0,0-1.53-.09,12.18,12.18,0,0,0-1.51.09l-1.51.19a5.93,5.93,0,0,1-.09-1.06c0-.36,0-.85,0-1.48V38.31q-.24.61-.54,1.29a7.72,7.72,0,0,1-1.2,1.72c-.16.19-.41.46-.75.8a8,8,0,0,1-1.36,1.06,8.64,8.64,0,0,1-2,.92,9.1,9.1,0,0,1-2.78.38,8.1,8.1,0,0,1-3.15-.59,7.08,7.08,0,0,1-2.42-1.65,7.5,7.5,0,0,1-1.58-2.54,9.13,9.13,0,0,1-.56-3.27A11.14,11.14,0,0,1,50,35.07a7.05,7.05,0,0,1,.38-1.53,7.26,7.26,0,0,1,.8-1.55,7.37,7.37,0,0,1,1.41-1.53,8.67,8.67,0,0,1,2.85-1.62,18.32,18.32,0,0,1,3.06-.78,19.69,19.69,0,0,1,2.66-.26l1.69,0h1.39q.87,0,1.81,0V26.6a11.52,11.52,0,0,0-.21-2.21,6.07,6.07,0,0,0-.73-2,3.73,3.73,0,0,0-1.48-1.39,5.3,5.3,0,0,0-2.52-.52,10.81,10.81,0,0,0-2.38.28,11.64,11.64,0,0,0-2.4.82,12.39,12.39,0,0,0-2.16,1.29,9.09,9.09,0,0,0-1.72,1.65c-.09-.47-.18-.86-.26-1.18a7.5,7.5,0,0,0-.28-.89c-.11-.28-.24-.58-.4-.89s-.36-.71-.61-1.18l1.93-.8a26.63,26.63,0,0,1,2.54-.89A29,29,0,0,1,58.47,18a19.19,19.19,0,0,1,6.28-.09,7.73,7.73,0,0,1,3.08,1.15,6.39,6.39,0,0,1,1.62,1.41,5.72,5.72,0,0,1,.89,1.62,7,7,0,0,1,.38,1.84q.07,1,.12,2ZM55,36.43A5.21,5.21,0,0,0,55.23,38,4.34,4.34,0,0,0,56,39.37a3.71,3.71,0,0,0,1.29,1,4.4,4.4,0,0,0,2,.4,5.14,5.14,0,0,0,2.61-.61,7.84,7.84,0,0,0,1.81-1.41,8.4,8.4,0,0,0,1.27-1.84,9.05,9.05,0,0,0,.7-1.93,12.42,12.42,0,0,0,.3-2.07q.07-1.08.12-2.3l-1.55-.16q-.8-.07-1.74-.07c-.5,0-1.12,0-1.84.09a8.44,8.44,0,0,0-1.93.38,6.27,6.27,0,0,0-1.15.52,5.69,5.69,0,0,0-1.32,1,5.93,5.93,0,0,0-1.08,1.62A5.65,5.65,0,0,0,55,36.43Z"></path><path id="f" d="M79.88,23.4l-3,.09q-1,0-2.09.14c0-.28.05-.56.07-.85s0-.56,0-.85,0-.57,0-.87,0-.57-.07-.82c1.38.09,3.62.14,5,.14V19.07c0-.69,0-1.42.07-2.19a8.94,8.94,0,0,1,.45-2.28c.25-.75,1.42-5.41,6.54-5.56,1.29,0,6,0,6,6.79a8.45,8.45,0,0,0-2.78-.22s-.29-3.78-3.28-3.11c-.69.15-2.54.59-2.45,5.1v2.78c.81,0,2.5-.05,3.33-.07s1.65-.05,2.47-.12c0,.25,0,.53,0,.85a9.89,9.89,0,0,0,0,1,5.39,5.39,0,0,0,0,.71,6.47,6.47,0,0,1,0,.75c-1.66-.12-4.17-.22-5.8-.28V33c0,1.1,0,2.06,0,2.89s0,1.57,0,2.21,0,1.21,0,1.69a11.22,11.22,0,0,0,.12,1.34,12,12,0,0,0,.26,1.76q.16.68.35,1.34l-1.43-.17q-.73-.07-1.44-.07t-1.58.07l-1.58.17a14.44,14.44,0,0,0,.33-1.76q0-.54.14-1.34t.07-1.69q0-.8,0-1.72t0-2c0-.75,0-1.65,0-2.68Z"></path><path id="F-2" data-name="F" d="M136.68,23.87q0-4-.07-6.28t-.21-3.67a13.73,13.73,0,0,0-.33-2,8.38,8.38,0,0,0-.47-1.29l1.53,0,2.4.09,2.8.09q1.46,0,2.73,0,2.26,0,4.78-.09l5.2-.19c-.09.53-.16,1-.21,1.32a8.81,8.81,0,0,0-.07,1.18A15.11,15.11,0,0,0,155,16c-.31-.31-.64-.61-1-.89a4.27,4.27,0,0,0-1.6-.71,12.4,12.4,0,0,0-2.12-.35q-1.27-.12-2.73-.12l-1.32,0-1.32,0-1.69.09-1.65.09c0,.75-.05,1.39-.07,1.9s0,1,0,1.41,0,.85,0,1.27v6q1.65.09,2.63.09c.66,0,1.21,0,1.65,0s1.06,0,1.69,0,1.33,0,2.12-.09a12.91,12.91,0,0,0,1.93-.19,5.41,5.41,0,0,0,1.13-.33,3,3,0,0,0,.66-.37l.56-.42q-.09.8-.19,1.46a10.38,10.38,0,0,0-.09,1.46,13.54,13.54,0,0,0,.09,1.62l.19,1.53c-.25-.12-.48-.25-.68-.38a3.43,3.43,0,0,0-.75-.33,9.25,9.25,0,0,0-1.06-.26q-.61-.12-1.55-.21t-2.26-.12l-1.79,0h-1.65q-1,0-2.63.09v5.22q0,2.17,0,3.76t.14,2.78a15.33,15.33,0,0,0,.33,2.21,6.23,6.23,0,0,0,.3,1.11c.11.27.24.57.4.92l-1.76-.17q-.87-.07-1.76-.07t-1.86.07l-1.86.17a11,11,0,0,0,.63-2.21q.21-1.17.33-2.59c.08-.94.13-2,.16-3.11s.06-2.4.09-3.81Z"></path><path id="i-2" data-name="i" d="M159.69,28.72q0-2.4-.12-4.63a16.79,16.79,0,0,0-.4-3.5,4.39,4.39,0,0,0-.49-1.22,8.88,8.88,0,0,0-.63-.8l1.9-.09a10.33,10.33,0,0,0,1.46-.19q.68-.14,1.46-.38t1.91-.66c-.09.53-.18,1.05-.26,1.55a16.32,16.32,0,0,0-.16,1.65q0,.9-.09,2.09t0,2.94v11.1q0,1.69.12,2.78t.16,1.86a12.41,12.41,0,0,0,.26,1.46q.16.68.4,1.58-.8-.1-1.53-.14c-.49,0-1,0-1.53,0s-1.05,0-1.55,0-1,.08-1.51.14c.16-.56.28-1,.35-1.39a11.06,11.06,0,0,0,.19-1.27q.07-.73.09-1.86t0-3.1Zm2-13.45a2.84,2.84,0,0,1-2-.85,2.87,2.87,0,0,1,0-4.09,2.81,2.81,0,0,1,2.07-.85,2.7,2.7,0,0,1,2,.87,2.9,2.9,0,0,1,0,4.07A2.76,2.76,0,0,1,161.66,15.26Z"></path><path id="l-2" data-name="l" d="M172.15,22.84q0-2.45-.07-4T172,16.14q0-1.06-.14-1.74t-.24-1.34a3.48,3.48,0,0,0-.61-1.39,5.62,5.62,0,0,0-.94-.87q1.27-.14,2.14-.28a14.74,14.74,0,0,0,1.62-.35,14.19,14.19,0,0,0,1.55-.54l2-.85a39.51,39.51,0,0,0-.52,5q-.1,2.5-.14,5V34.13q0,2.26,0,4.35A25.1,25.1,0,0,0,177,42q.14.89.26,1.34a5.93,5.93,0,0,0,.35,1l-1.6-.17q-.8-.07-1.6-.07t-1.55.07l-1.55.17c.09-.28.19-.59.28-.92a8.81,8.81,0,0,0,.24-1.39q.09-.61.14-1.55c0-.63.05-1.29.07-2s0-1.43,0-2.16,0-1.43,0-2.09Z"></path><path id="t-5" data-name="t" d="M185.23,17.38q0-1.37,0-2.16t-.12-1.32a4.33,4.33,0,0,0-.19-.85c-.08-.22-.18-.47-.3-.75l1.58-.24a10,10,0,0,0,1.22-.26q.59-.16,1.22-.4l1.58-.61c-.09.44-.17.85-.23,1.22a12.57,12.57,0,0,0-.14,1.32q0,.75-.07,1.76t0,2.52v2.82l2-.07q1.06,0,2.75-.12c0,.35-.06.68-.09,1a9.4,9.4,0,0,0,0,1,7.2,7.2,0,0,0,.14,1.41q-1.6-.09-2.75-.09t-2,0q0,3,0,5.9v5.9a28.61,28.61,0,0,0,.12,2.92,3.15,3.15,0,0,0,.68,1.75,2.45,2.45,0,0,0,.85.59,3.53,3.53,0,0,0,1.46.26,4.54,4.54,0,0,0,1.25-.15,8,8,0,0,0,1-.36c-.09.44-.17.82-.24,1.13s-.11.6-.14.87-.05.54-.07.82,0,.63,0,1l-1.74.14q-.61,0-1.13,0a12.4,12.4,0,0,1-2.33-.19,8.14,8.14,0,0,1-1.62-.47,3.94,3.94,0,0,1-1.08-.66,5.1,5.1,0,0,1-.71-.75,4.38,4.38,0,0,1-.87-2.12,16.47,16.47,0,0,1-.12-1.74l.19-14.91q-1.27,0-3.72.14c0-.28.05-.56.07-.85s0-.55,0-.8,0-.56,0-.85,0-.56-.07-.85c.81.06,1.51.1,2.09.12l1.72,0Z"></path><path id="e-4" data-name="e" d="M203.39,31.35q.09,1.27.35,2.8a9.7,9.7,0,0,0,1.2,3.18,7.24,7.24,0,0,0,3.62,3.29,9.13,9.13,0,0,0,2.14.59,14.61,14.61,0,0,0,2.19.16,13.5,13.5,0,0,0,2.73-.23,7.15,7.15,0,0,0,1.88-.63,6.16,6.16,0,0,0,1.27-.87c.34-.31.66-.61.94-.89-.19.56-.34,1-.45,1.43s-.2.76-.28,1.11a7.64,7.64,0,0,0-.16,1c0,.35-.06.75-.1,1.22q-1,.28-2.63.61a21,21,0,0,1-4,.33,17,17,0,0,1-5.76-.92,11.24,11.24,0,0,1-7-6.91,16.25,16.25,0,0,1-.94-5.72,20.83,20.83,0,0,1,.68-5.29,10.55,10.55,0,0,1,2.52-4.59,11.71,11.71,0,0,1,8.7-3.39,13.16,13.16,0,0,1,4.4.75,8.13,8.13,0,0,1,3.6,2.49A8.91,8.91,0,0,1,220,24.41a16.27,16.27,0,0,1,.54,4.16c0,.25,0,.57,0,1s-.06,1-.12,1.81Zm12.18-2.73q0-1.41-.14-3a6.05,6.05,0,0,0-1.08-2.94,5,5,0,0,0-1.83-1.7,6.23,6.23,0,0,0-5-.16,7,7,0,0,0-1.62,1,6.12,6.12,0,0,0-1.29,1.58,8.12,8.12,0,0,0-.75,1.76,10.33,10.33,0,0,0-.35,1.79q-.1.9-.14,1.65Z"></path><path id="r-3" data-name="r" d="M226.34,28.72q0-1.5,0-2.61c0-.74,0-1.39,0-2s0-1.07-.09-1.51a8.77,8.77,0,0,0-.21-1.22,4.65,4.65,0,0,0-.63-1.74c-.27-.38-.53-.72-.78-1q1.13,0,1.9-.12a13.08,13.08,0,0,0,1.46-.21,14.28,14.28,0,0,0,1.41-.38l1.81-.61c0,.5-.05.89-.07,1.18s0,.55,0,.8,0,.52,0,.8,0,.66,0,1.13v3.11q.33-.75.92-1.86a9.27,9.27,0,0,1,4-3.88,9.18,9.18,0,0,1,3.62-.89c-.16.44-.34,1-.54,1.7a17.16,17.16,0,0,0-.49,3.06,5.58,5.58,0,0,0-.61-.14,4.06,4.06,0,0,0-.66,0,5.54,5.54,0,0,0-2.4.61,5.72,5.72,0,0,0-2.21,2,8.07,8.07,0,0,0-1,1.91,11.73,11.73,0,0,0-.52,2,14.45,14.45,0,0,0-.19,2q0,1,0,1.76v4.94q0,1.37,0,2.31c0,.63.07,1.18.12,1.67s.11.94.19,1.36.2.92.35,1.48l-1.46-.21a9.57,9.57,0,0,0-3,0q-.73.12-1.53.21a15.82,15.82,0,0,0,.49-3.13q.12-1.76.16-3.6Z"></path></g></svg>