<svg width="399" height="72" viewBox="0 0 399 72" fill="none" xmlns="http://www.w3.org/2000/svg">
<path d="M96.3441 37.5054V70.8901H79.8023V40.112C79.8023 30.6883 75.6918 26.3774 68.9747 26.3774C61.5561 26.3774 56.4431 31.2898 56.4431 41.7163V70.8901H39.8009V40.112C39.8009 30.6883 35.8908 26.3774 28.9734 26.3774C25.4645 26.3774 22.3567 27.5804 20.2513 29.8862C17.9455 32.3927 16.5419 36.3025 16.5419 41.6159V70.8901H0V12.7428C0.300762 12.6425 0.601525 12.6425 0.902287 12.6425H2.60661C7.92008 12.843 12.632 15.3494 15.8402 19.2593V19.3595C20.0508 14.4471 26.4671 11.7402 33.6853 11.7402C41.6053 11.7402 48.4227 14.9484 52.4329 21.3646C56.9442 15.4496 64.3631 11.7402 72.9849 11.7402C86.6196 11.7402 96.3441 19.7606 96.3441 37.5054Z" fill="#F6F9FE"/>
<path d="M274.596 37.5066V70.8912H258.054V40.1131C258.054 30.6892 253.943 26.3783 247.226 26.3783C239.807 26.3783 234.694 31.2907 234.694 41.7172V70.8912H218.152V40.1131C218.152 30.6892 214.243 26.3783 207.325 26.3783C203.816 26.3783 200.708 27.5815 198.603 29.8873C196.297 32.3935 194.894 36.3034 194.894 41.6168V70.8912H178.352V12.7438C178.652 12.6435 178.953 12.6435 179.254 12.6435H180.958C186.272 12.844 190.984 15.3504 194.192 19.2603V19.3605H194.292C198.503 14.4481 204.919 11.7412 212.137 11.7412C220.057 11.7412 226.875 14.9493 230.885 21.3656C235.396 15.4506 242.815 11.7412 251.437 11.7412C264.872 11.7412 274.596 19.7615 274.596 37.5066Z" fill="#F6F9FE"/>
<path d="M346.58 37.5066V70.8912H330.137V40.1131C330.137 30.6892 325.926 26.3783 318.607 26.3783C315.1 26.3783 311.991 27.4812 309.585 29.5863C306.679 32.0928 304.973 36.2033 304.973 42.2186V70.8912H288.432V12.6435C288.53 12.6435 288.632 12.6435 288.632 12.6435H289.133C295.148 12.6435 300.461 15.2501 304.373 19.2603V19.3605C308.784 14.4481 315.501 11.7412 323.22 11.7412C336.453 11.7412 346.58 19.7615 346.58 37.5066Z" fill="#F6F9FE"/>
<path opacity="0.4" d="M380.667 27.2803C380.466 27.3806 380.264 27.4809 380.063 27.4809V27.2803H380.667Z" fill="#F6F9FE"/>
<path d="M398.21 68.3844C394.802 70.8906 389.788 71.9935 384.776 71.9935C371.341 71.9935 363.421 64.9757 363.421 51.1405V27.2802H352.795C352.894 23.0695 354.9 19.3601 357.908 16.954C359.41 15.751 361.115 14.7484 363.119 14.2472H363.322V0.111328H379.864V14.2472H394.1C391.995 20.6634 386.882 25.5759 380.464 27.2802H379.864V50.9401C379.864 55.9529 382.468 58.6597 386.981 58.6597C389.388 58.6597 391.792 57.8576 393.598 56.4543L398.21 68.3844Z" fill="#F6F9FE"/>
<path fill-rule="evenodd" clip-rule="evenodd" d="M141.761 28.0826C147.475 30.4888 152.087 35.3008 152.087 41.8175V42.3186C158.904 31.1906 155.094 19.561 152.989 15.8516C148.478 13.245 143.264 11.7412 137.75 11.7412C123.113 11.7412 110.983 22.1676 108.276 35.9026C108.376 35.6016 109.178 34.9 109.479 34.6994C109.729 34.499 109.955 34.2736 110.18 34.0482L110.18 34.0482L110.18 34.0481C110.406 33.8225 110.632 33.5967 110.882 33.3961C111.885 32.4939 112.988 31.6917 114.191 30.8899C116.797 29.1855 119.605 27.8822 122.612 26.9798C126.121 25.9773 129.73 25.6765 133.339 25.9773C136.247 26.3783 139.154 26.9798 141.761 28.0826ZM123.815 45.1261C123.013 39.0105 124.917 32.5942 130.532 29.3861C130.632 29.3361 130.707 29.286 130.782 29.236L130.782 29.2359C130.857 29.1857 130.933 29.1355 131.033 29.0854C118 28.7844 109.88 37.9076 107.674 41.5167C107.674 46.7301 108.877 51.9432 111.684 56.8556C119.003 69.4878 134.041 74.8012 147.374 70.2897C147.123 70.3737 146.378 70.106 145.967 69.9579C145.887 69.9291 145.819 69.9049 145.77 69.8886C145.169 69.6882 144.567 69.4878 143.966 69.2871C142.662 68.786 141.359 68.2846 140.156 67.6831C137.349 66.2795 134.843 64.4751 132.537 62.3697C129.93 59.8632 127.825 56.8558 126.321 53.5472C125.118 50.8406 124.216 48.0334 123.815 45.1261ZM130.531 54.2488C136.145 57.4568 142.662 55.9531 147.574 52.1434C149.88 50.439 151.885 48.2335 153.489 45.8274C155.594 42.8197 157.098 39.5114 158.001 36.0026C158.702 32.995 159.003 29.887 158.803 26.7791C158.702 25.3755 158.502 23.972 158.301 22.6687C158.246 22.2802 158.16 21.9224 158.077 21.5783C158.01 21.3009 157.945 21.0324 157.901 20.7639C157.901 20.4816 157.812 19.4927 157.553 19.2065C168.136 28.536 171.021 44.2444 163.715 56.8553C160.908 61.6676 156.998 65.4771 152.487 67.9836C148.276 67.8833 136.245 65.3771 130.03 53.948C130.13 53.9982 130.205 54.0484 130.281 54.0986C130.356 54.1486 130.431 54.1987 130.531 54.2488ZM157.499 19.1598C157.518 19.1721 157.536 19.1878 157.553 19.2065C157.535 19.1909 157.517 19.1754 157.499 19.1598Z" fill="#EF8874"/>
</svg>
