<svg xmlns="http://www.w3.org/2000/svg" viewBox="0 0 800 600" fill="none" stroke="currentColor" stroke-width="0.55" stroke-opacity="0.6" stroke-linecap="round" stroke-linejoin="round" aria-hidden="true">
  <g>
    <line x1="0" y1="0" x2="362.26" y2="271.70" />
    <line x1="800" y1="0" x2="437.74" y2="271.70" />
    <line x1="800" y1="600" x2="437.74" y2="328.30" />
    <line x1="0" y1="600" x2="362.26" y2="328.30" />
  </g>
  <g>
    <line x1="26.67" y1="0" x2="364.78" y2="271.70" />
    <line x1="26.67" y1="600" x2="364.78" y2="328.30" />
    <line x1="53.33" y1="0" x2="367.30" y2="271.70" />
    <line x1="53.33" y1="600" x2="367.30" y2="328.30" />
    <line x1="80.00" y1="0" x2="369.81" y2="271.70" />
    <line x1="80.00" y1="600" x2="369.81" y2="328.30" />
    <line x1="106.67" y1="0" x2="372.33" y2="271.70" />
    <line x1="106.67" y1="600" x2="372.33" y2="328.30" />
    <line x1="133.33" y1="0" x2="374.84" y2="271.70" />
    <line x1="133.33" y1="600" x2="374.84" y2="328.30" />
    <line x1="160.00" y1="0" x2="377.36" y2="271.70" />
    <line x1="160.00" y1="600" x2="377.36" y2="328.30" />
    <line x1="186.67" y1="0" x2="379.87" y2="271.70" />
    <line x1="186.67" y1="600" x2="379.87" y2="328.30" />
    <line x1="213.33" y1="0" x2="382.39" y2="271.70" />
    <line x1="213.33" y1="600" x2="382.39" y2="328.30" />
    <line x1="240.00" y1="0" x2="384.91" y2="271.70" />
    <line x1="240.00" y1="600" x2="384.91" y2="328.30" />
    <line x1="266.67" y1="0" x2="387.42" y2="271.70" />
    <line x1="266.67" y1="600" x2="387.42" y2="328.30" />
    <line x1="293.33" y1="0" x2="389.94" y2="271.70" />
    <line x1="293.33" y1="600" x2="389.94" y2="328.30" />
    <line x1="320.00" y1="0" x2="392.45" y2="271.70" />
    <line x1="320.00" y1="600" x2="392.45" y2="328.30" />
    <line x1="346.67" y1="0" x2="394.97" y2="271.70" />
    <line x1="346.67" y1="600" x2="394.97" y2="328.30" />
    <line x1="373.33" y1="0" x2="397.48" y2="271.70" />
    <line x1="373.33" y1="600" x2="397.48" y2="328.30" />
    <line x1="400.00" y1="0" x2="400.00" y2="271.70" />
    <line x1="400.00" y1="600" x2="400.00" y2="328.30" />
    <line x1="426.67" y1="0" x2="402.52" y2="271.70" />
    <line x1="426.67" y1="600" x2="402.52" y2="328.30" />
    <line x1="453.33" y1="0" x2="405.03" y2="271.70" />
    <line x1="453.33" y1="600" x2="405.03" y2="328.30" />
    <line x1="480.00" y1="0" x2="407.55" y2="271.70" />
    <line x1="480.00" y1="600" x2="407.55" y2="328.30" />
    <line x1="506.67" y1="0" x2="410.06" y2="271.70" />
    <line x1="506.67" y1="600" x2="410.06" y2="328.30" />
    <line x1="533.33" y1="0" x2="412.58" y2="271.70" />
    <line x1="533.33" y1="600" x2="412.58" y2="328.30" />
    <line x1="560.00" y1="0" x2="415.09" y2="271.70" />
    <line x1="560.00" y1="600" x2="415.09" y2="328.30" />
    <line x1="586.67" y1="0" x2="417.61" y2="271.70" />
    <line x1="586.67" y1="600" x2="417.61" y2="328.30" />
    <line x1="613.33" y1="0" x2="420.13" y2="271.70" />
    <line x1="613.33" y1="600" x2="420.13" y2="328.30" />
    <line x1="640.00" y1="0" x2="422.64" y2="271.70" />
    <line x1="640.00" y1="600" x2="422.64" y2="328.30" />
    <line x1="666.67" y1="0" x2="425.16" y2="271.70" />
    <line x1="666.67" y1="600" x2="425.16" y2="328.30" />
    <line x1="693.33" y1="0" x2="427.67" y2="271.70" />
    <line x1="693.33" y1="600" x2="427.67" y2="328.30" />
    <line x1="720.00" y1="0" x2="430.19" y2="271.70" />
    <line x1="720.00" y1="600" x2="430.19" y2="328.30" />
    <line x1="746.67" y1="0" x2="432.70" y2="271.70" />
    <line x1="746.67" y1="600" x2="432.70" y2="328.30" />
    <line x1="773.33" y1="0" x2="435.22" y2="271.70" />
    <line x1="773.33" y1="600" x2="435.22" y2="328.30" />
    <line x1="0" y1="20.00" x2="362.26" y2="273.58" />
    <line x1="800" y1="20.00" x2="437.74" y2="273.58" />
    <line x1="0" y1="40.00" x2="362.26" y2="275.47" />
    <line x1="800" y1="40.00" x2="437.74" y2="275.47" />
    <line x1="0" y1="60.00" x2="362.26" y2="277.36" />
    <line x1="800" y1="60.00" x2="437.74" y2="277.36" />
    <line x1="0" y1="80.00" x2="362.26" y2="279.25" />
    <line x1="800" y1="80.00" x2="437.74" y2="279.25" />
    <line x1="0" y1="100.00" x2="362.26" y2="281.13" />
    <line x1="800" y1="100.00" x2="437.74" y2="281.13" />
    <line x1="0" y1="120.00" x2="362.26" y2="283.02" />
    <line x1="800" y1="120.00" x2="437.74" y2="283.02" />
    <line x1="0" y1="140.00" x2="362.26" y2="284.91" />
    <line x1="800" y1="140.00" x2="437.74" y2="284.91" />
    <line x1="0" y1="160.00" x2="362.26" y2="286.79" />
    <line x1="800" y1="160.00" x2="437.74" y2="286.79" />
    <line x1="0" y1="180.00" x2="362.26" y2="288.68" />
    <line x1="800" y1="180.00" x2="437.74" y2="288.68" />
    <line x1="0" y1="200.00" x2="362.26" y2="290.57" />
    <line x1="800" y1="200.00" x2="437.74" y2="290.57" />
    <line x1="0" y1="220.00" x2="362.26" y2="292.45" />
    <line x1="800" y1="220.00" x2="437.74" y2="292.45" />
    <line x1="0" y1="240.00" x2="362.26" y2="294.34" />
    <line x1="800" y1="240.00" x2="437.74" y2="294.34" />
    <line x1="0" y1="260.00" x2="362.26" y2="296.23" />
    <line x1="800" y1="260.00" x2="437.74" y2="296.23" />
    <line x1="0" y1="280.00" x2="362.26" y2="298.11" />
    <line x1="800" y1="280.00" x2="437.74" y2="298.11" />
    <line x1="0" y1="300.00" x2="362.26" y2="300.00" />
    <line x1="800" y1="300.00" x2="437.74" y2="300.00" />
    <line x1="0" y1="320.00" x2="362.26" y2="301.89" />
    <line x1="800" y1="320.00" x2="437.74" y2="301.89" />
    <line x1="0" y1="340.00" x2="362.26" y2="303.77" />
    <line x1="800" y1="340.00" x2="437.74" y2="303.77" />
    <line x1="0" y1="360.00" x2="362.26" y2="305.66" />
    <line x1="800" y1="360.00" x2="437.74" y2="305.66" />
    <line x1="0" y1="380.00" x2="362.26" y2="307.55" />
    <line x1="800" y1="380.00" x2="437.74" y2="307.55" />
    <line x1="0" y1="400.00" x2="362.26" y2="309.43" />
    <line x1="800" y1="400.00" x2="437.74" y2="309.43" />
    <line x1="0" y1="420.00" x2="362.26" y2="311.32" />
    <line x1="800" y1="420.00" x2="437.74" y2="311.32" />
    <line x1="0" y1="440.00" x2="362.26" y2="313.21" />
    <line x1="800" y1="440.00" x2="437.74" y2="313.21" />
    <line x1="0" y1="460.00" x2="362.26" y2="315.09" />
    <line x1="800" y1="460.00" x2="437.74" y2="315.09" />
    <line x1="0" y1="480.00" x2="362.26" y2="316.98" />
    <line x1="800" y1="480.00" x2="437.74" y2="316.98" />
    <line x1="0" y1="500.00" x2="362.26" y2="318.87" />
    <line x1="800" y1="500.00" x2="437.74" y2="318.87" />
    <line x1="0" y1="520.00" x2="362.26" y2="320.75" />
    <line x1="800" y1="520.00" x2="437.74" y2="320.75" />
    <line x1="0" y1="540.00" x2="362.26" y2="322.64" />
    <line x1="800" y1="540.00" x2="437.74" y2="322.64" />
    <line x1="0" y1="560.00" x2="362.26" y2="324.53" />
    <line x1="800" y1="560.00" x2="437.74" y2="324.53" />
    <line x1="0" y1="580.00" x2="362.26" y2="326.42" />
    <line x1="800" y1="580.00" x2="437.74" y2="326.42" />
  </g>
  <g>
    <rect x="0.00" y="0.00" width="800.00" height="600.00" />
    <rect x="96.97" y="72.73" width="606.06" height="454.55" />
    <rect x="156.10" y="117.07" width="487.80" height="365.85" />
    <rect x="195.92" y="146.94" width="408.16" height="306.12" />
    <rect x="224.56" y="168.42" width="350.88" height="263.16" />
    <rect x="246.15" y="184.62" width="307.69" height="230.77" />
    <rect x="263.01" y="197.26" width="273.97" height="205.48" />
    <rect x="276.54" y="207.41" width="246.91" height="185.19" />
    <rect x="287.64" y="215.73" width="224.72" height="168.54" />
    <rect x="296.91" y="222.68" width="206.19" height="154.64" />
    <rect x="304.76" y="228.57" width="190.48" height="142.86" />
    <rect x="311.50" y="233.63" width="176.99" height="132.74" />
    <rect x="317.36" y="238.02" width="165.29" height="123.97" />
    <rect x="322.48" y="241.86" width="155.04" height="116.28" />
    <rect x="327.01" y="245.26" width="145.99" height="109.49" />
    <rect x="331.03" y="248.28" width="137.93" height="103.45" />
    <rect x="334.64" y="250.98" width="130.72" height="98.04" />
    <rect x="337.89" y="253.42" width="124.22" height="93.17" />
    <rect x="340.83" y="255.62" width="118.34" height="88.76" />
    <rect x="343.50" y="257.63" width="112.99" height="84.75" />
    <rect x="345.95" y="259.46" width="108.11" height="81.08" />
    <rect x="348.19" y="261.14" width="103.63" height="77.72" />
    <rect x="350.25" y="262.69" width="99.50" height="74.63" />
    <rect x="352.15" y="264.11" width="95.69" height="71.77" />
    <rect x="353.92" y="265.44" width="92.17" height="69.12" />
    <rect x="355.56" y="266.67" width="88.89" height="66.67" />
    <rect x="357.08" y="267.81" width="85.84" height="64.38" />
    <rect x="358.51" y="268.88" width="82.99" height="62.24" />
    <rect x="359.84" y="269.88" width="80.32" height="60.24" />
    <rect x="361.09" y="270.82" width="77.82" height="58.37" />
    <rect x="362.26" y="271.70" width="75.47" height="56.60" />
  </g>
</svg>
