<svg width="118" height="48" viewBox="0 0 118 48" fill="none" xmlns="http://www.w3.org/2000/svg">
<path d="M65.5874 21.6162C63.0689 21.6162 61.2404 22.5477 59.9984 24.1347V22.0992H55.5479V46.2491H59.9984V37.3137C61.2404 38.9007 63.0689 39.8322 65.5874 39.8322C70.2103 39.8322 74.0053 35.8647 74.0053 30.7242C74.0053 25.5837 70.2103 21.6162 65.5874 21.6162ZM64.7593 35.5887C62.0338 35.5887 59.9984 33.6222 59.9984 30.7242C59.9984 27.8262 62.0338 25.8597 64.7593 25.8597C67.5192 25.8597 69.5548 27.8262 69.5548 30.7242C69.5548 33.6222 67.5192 35.5887 64.7593 35.5887Z" fill="#13294B"/>
<path d="M90.2541 22.0992V24.1347C89.0121 22.5822 87.1491 21.6162 84.6306 21.6162C80.0421 21.6162 76.2471 25.5837 76.2471 30.7242C76.2471 35.8647 80.0421 39.8322 84.6306 39.8322C87.1491 39.8322 89.0121 38.8662 90.2541 37.3137V39.3492H94.7046V22.0992H90.2541ZM85.4586 35.5887C82.7331 35.5887 80.6976 33.6222 80.6976 30.7242C80.6976 27.8262 82.7331 25.8597 85.4586 25.8597C88.2186 25.8597 90.2541 27.8262 90.2541 30.7242C90.2541 33.6222 88.2186 35.5887 85.4586 35.5887Z" fill="#13294B"/>
<path d="M109.987 22.0991L106.158 33.6911L101.673 22.0991H96.8081L103.881 38.7971C103.053 41.1086 101.811 42.1436 99.3611 42.1091V46.249C103.743 46.4905 106.675 44.317 108.469 39.3491L114.748 22.0991H109.987Z" fill="#13294B"/>
<path d="M62.2676 6.8005C60.8793 6.8005 59.8714 7.31399 59.1867 8.18881V3.26318H56.7334V16.5757H59.1867V15.4537C59.8714 16.3285 60.8793 16.842 62.2676 16.842C64.816 16.842 66.908 14.6549 66.908 11.8213C66.908 8.98756 64.816 6.8005 62.2676 6.8005ZM61.8112 14.5028C60.3088 14.5028 59.1867 13.4188 59.1867 11.8213C59.1867 10.2238 60.3088 9.1397 61.8112 9.1397C63.3326 9.1397 64.4547 10.2238 64.4547 11.8213C64.4547 13.4188 63.3326 14.5028 61.8112 14.5028Z" fill="#13294B"/>
<path d="M71.0915 8.70219V7.06664H68.6382V16.5755H71.0915V12.0303C71.0915 10.0334 72.708 9.46291 73.9822 9.61505V6.87646C72.7841 6.87646 71.5859 7.40898 71.0915 8.70219Z" fill="#13294B"/>
<path d="M77.1372 12.8294H84.3069C84.364 12.5061 84.402 12.1828 84.402 11.8215C84.402 9.02588 82.4051 6.80078 79.5905 6.80078C76.6047 6.80078 74.5698 8.98784 74.5698 11.8215C74.5698 14.6551 76.5857 16.8422 79.7807 16.8422C81.6064 16.8422 83.0327 16.1005 83.9266 14.8073L81.9487 13.6662C81.5303 14.2177 80.7696 14.6171 79.8187 14.6171C78.5255 14.6171 77.4795 14.0846 77.1372 12.8294ZM77.0991 10.9276C77.3844 9.71052 78.2783 9.00686 79.5905 9.00686C80.6175 9.00686 81.6444 9.55837 81.9487 10.9276H77.0991Z" fill="#13294B"/>
<path d="M93.2672 7.06703V8.18909C92.5825 7.33328 91.5556 6.80078 90.1673 6.80078C87.6379 6.80078 85.5459 8.98784 85.5459 11.8215C85.5459 14.6551 87.6379 16.8422 90.1673 16.8422C91.5556 16.8422 92.5825 16.3097 93.2672 15.4539V16.5759H95.7205V7.06703H93.2672ZM90.6237 14.503C89.1213 14.503 87.9992 13.419 87.9992 11.8215C87.9992 10.224 89.1213 9.13998 90.6237 9.13998C92.1451 9.13998 93.2672 10.224 93.2672 11.8215C93.2672 13.419 92.1451 14.503 90.6237 14.503Z" fill="#13294B"/>
<path d="M105.153 3.26318V8.18881C104.468 7.31399 103.46 6.8005 102.072 6.8005C99.5236 6.8005 97.4316 8.98756 97.4316 11.8213C97.4316 14.6549 99.5236 16.842 102.072 16.842C103.46 16.842 104.468 16.3285 105.153 15.4537V16.5757H107.606V3.26318H105.153ZM102.528 14.5028C101.007 14.5028 99.8849 13.4188 99.8849 11.8213C99.8849 10.2238 101.007 9.1397 102.528 9.1397C104.031 9.1397 105.153 10.2238 105.153 11.8213C105.153 13.4188 104.031 14.5028 102.528 14.5028Z" fill="#13294B"/>
<path d="M24 0C10.7439 0 0 10.7439 0 24C0 37.2561 10.7439 48 24 48C37.2561 48 48 37.2561 48 24C48.0224 10.7439 37.2785 0 24 0ZM28.6206 41.4729L28.3065 41.6523C26.1981 42.7962 23.5514 41.9888 22.4075 39.8804L9.35327 15.6336C8.20934 13.5252 9.01682 10.8785 11.1252 9.73458L11.4392 9.55514C13.5477 8.41121 16.1944 9.19626 17.3383 11.3271L30.3925 35.5738C31.514 37.7047 30.729 40.329 28.6206 41.4729ZM33.8916 34.7439L23.7533 15.9252C28.957 13.1215 35.4392 15.0729 38.243 20.2766C41.0467 25.4579 39.0953 31.9402 33.8916 34.7439Z" fill="#59BEC9"/>
<path d="M115.01 38.1865H113.244V38.6393H113.889V40.5877H114.362V38.6393H115.01V38.1865Z" fill="#13294B"/>
<path d="M117.625 38.1865H117.137L116.451 39.322L115.762 38.1865H115.275V40.5877H115.748V39.0338L116.424 40.1452H116.479L117.155 39.0304V40.5877H117.625V38.1865Z" fill="#13294B"/>
</svg>
