<svg  width="100%" height="100%" overflow="visible" style="display: block;" viewBox="0 0 59.0685 58.6667" fill="none" xmlns="http://www.w3.org/2000/svg">
<g id="Logomark">
<path id="Isometric square" d="M17.8246 27.0909C18.9285 22.9999 23.1625 18.7947 27.2815 17.6984L52.9615 10.8632C57.0806 9.76686 59.5249 12.1945 58.421 16.2856L51.539 41.7909C50.4352 45.8819 46.2012 50.0871 42.0821 51.1834L16.4021 58.0186C12.2831 59.1149 9.83879 56.6873 10.9426 52.5963L17.8246 27.0909Z" fill="var(--fill-0, #3592F7)"/>
<path id="Isometric square_2" d="M7.52967 16.8658C8.63354 12.7748 12.8675 8.56957 16.9866 7.47322L42.6666 0.638061C46.7857 -0.458291 49.23 1.96937 48.1261 6.0604L41.2441 31.5657C40.1403 35.6567 35.9063 39.8619 31.7872 40.9583L6.10718 47.7934C1.98813 48.8898 -0.45616 46.4621 0.647702 42.3711L7.52967 16.8658Z" fill="var(--fill-0, #175CD3)"/>
</g>
</svg>
