<svg  width="100%" height="100%" overflow="visible" style="display: block;" viewBox="0 0 117.13 35.616" fill="none" xmlns="http://www.w3.org/2000/svg">
<g id="Logotype">
<path d="M4.28515 22.512H13.1186V25.9467H0V0H4.28515V22.512Z" fill="var(--fill-0, #101828)"/>
<path d="M15.2738 15.568C15.2738 13.5022 15.6998 11.6729 16.5518 10.08C17.4289 8.48711 18.6067 7.25511 20.0852 6.384C21.5887 5.488 23.2426 5.04 25.0469 5.04C26.6758 5.04 28.0916 5.36356 29.2945 6.01067C30.5224 6.63289 31.4997 7.41689 32.2264 8.36267V5.376H36.5492V25.9467H32.2264V22.8853C31.4997 23.856 30.5099 24.6649 29.2569 25.312C28.0039 25.9591 26.5755 26.2827 24.9717 26.2827C23.1925 26.2827 21.5637 25.8347 20.0852 24.9387C18.6067 24.0178 17.4289 22.7484 16.5518 21.1307C15.6998 19.488 15.2738 17.6338 15.2738 15.568ZM32.2264 15.6427C32.2264 14.224 31.9257 12.992 31.3243 11.9467C30.7479 10.9013 29.9836 10.1049 29.0314 9.55733C28.0791 9.00978 27.0517 8.736 25.9491 8.736C24.8464 8.736 23.819 9.00978 22.8668 9.55733C21.9145 10.08 21.1377 10.864 20.5362 11.9093C19.9599 12.9298 19.6717 14.1493 19.6717 15.568C19.6717 16.9867 19.9599 18.2311 20.5362 19.3013C21.1377 20.3716 21.9145 21.1929 22.8668 21.7653C23.8441 22.3129 24.8715 22.5867 25.9491 22.5867C27.0517 22.5867 28.0791 22.3129 29.0314 21.7653C29.9836 21.2178 30.7479 20.4213 31.3243 19.376C31.9257 18.3058 32.2264 17.0613 32.2264 15.6427Z" fill="var(--fill-0, #101828)"/>
<path d="M60.8217 5.376L48.1166 35.616H43.6811L47.8911 25.6107L39.7342 5.376H44.5081L50.3344 21.056L56.3862 5.376H60.8217Z" fill="var(--fill-0, #101828)"/>
<path d="M83.038 15.1573C83.038 15.9289 82.9879 16.6258 82.8876 17.248H67.0627C67.1879 18.8907 67.8019 20.2098 68.9045 21.2053C70.0071 22.2009 71.3603 22.6987 72.9641 22.6987C75.2696 22.6987 76.8984 21.7404 77.8507 19.824H82.4742C81.8477 21.7156 80.7075 23.2711 79.0536 24.4907C77.4247 25.6853 75.3949 26.2827 72.9641 26.2827C70.9844 26.2827 69.2052 25.8471 67.6265 24.976C66.0728 24.08 64.8449 22.8356 63.9428 21.2427C63.0657 19.6249 62.6271 17.7582 62.6271 15.6427C62.6271 13.5271 63.0532 11.6729 63.9052 10.08C64.7822 8.46222 65.9976 7.21778 67.5513 6.34667C69.13 5.47556 70.9343 5.04 72.9641 5.04C74.9188 5.04 76.6604 5.46311 78.189 6.30933C79.7176 7.15556 80.9079 8.35022 81.76 9.89333C82.612 11.4116 83.038 13.1662 83.038 15.1573ZM78.5649 13.8133C78.5398 12.2453 77.976 10.9884 76.8734 10.0427C75.7708 9.09689 74.405 8.624 72.7762 8.624C71.2977 8.624 70.0322 9.09689 68.9797 10.0427C67.9272 10.9636 67.3007 12.2204 67.1002 13.8133H78.5649Z" fill="var(--fill-0, #101828)"/>
<path d="M91.5402 8.36267C92.1666 7.31733 92.9936 6.50845 94.021 5.936C95.0735 5.33867 96.314 5.04 97.7424 5.04V9.44533H96.6523C94.9733 9.44533 93.6953 9.86845 92.8182 10.7147C91.9662 11.5609 91.5402 13.0293 91.5402 15.12V25.9467H87.255V5.376H91.5402V8.36267Z" fill="var(--fill-0, #101828)"/>
<path d="M109.199 26.2827C107.57 26.2827 106.104 25.9964 104.801 25.424C103.523 24.8267 102.508 24.0302 101.756 23.0347C101.005 22.0142 100.604 20.8818 100.554 19.6373H104.989C105.064 20.5084 105.478 21.2427 106.23 21.84C107.006 22.4124 107.971 22.6987 109.124 22.6987C110.327 22.6987 111.254 22.4747 111.905 22.0267C112.582 21.5538 112.92 20.9564 112.92 20.2347C112.92 19.4631 112.545 18.8907 111.793 18.5173C111.066 18.144 109.901 17.7333 108.297 17.2853C106.743 16.8622 105.478 16.4516 104.5 16.0533C103.523 15.6551 102.671 15.0453 101.944 14.224C101.243 13.4027 100.892 12.32 100.892 10.976C100.892 9.88089 101.218 8.88533 101.869 7.98933C102.521 7.06844 103.448 6.34667 104.651 5.824C105.879 5.30133 107.282 5.04 108.861 5.04C111.216 5.04 113.108 5.63733 114.537 6.832C115.99 8.00178 116.767 9.60711 116.867 11.648H112.582C112.507 10.7271 112.131 9.99289 111.454 9.44533C110.778 8.89778 109.863 8.624 108.71 8.624C107.583 8.624 106.718 8.83556 106.117 9.25867C105.515 9.68178 105.215 10.2418 105.215 10.9387C105.215 11.4862 105.415 11.9467 105.816 12.32C106.217 12.6933 106.706 12.992 107.282 13.216C107.858 13.4151 108.71 13.6764 109.838 14C111.342 14.3982 112.57 14.8089 113.522 15.232C114.499 15.6302 115.339 16.2276 116.04 17.024C116.742 17.8204 117.105 18.8782 117.13 20.1973C117.13 21.3671 116.805 22.4124 116.153 23.3333C115.501 24.2542 114.574 24.976 113.371 25.4987C112.194 26.0213 110.803 26.2827 109.199 26.2827Z" fill="var(--fill-0, #101828)"/>
</g>
</svg>
