<svg  width="100%" height="100%" overflow="visible" style="display: block;" viewBox="0 0 130.695 27.8074" fill="none" xmlns="http://www.w3.org/2000/svg">
<g id="wellsfargo">
<path id="Vector" d="M130.695 0H0V27.8074H130.695V0Z" fill="var(--fill-0, #D71E28)"/>
<path id="Shape" d="M29.3111 15.657H30.534V19.9065H20.3264V18.3597H21.77V9.00772H19.4279L16.4553 19.9065H14.0945L11.6826 10.8746L9.2031 19.9065H6.84212L3.85291 9.00772H2.49417V7.46113H8.03108V9.00772H6.43456L8.42164 16.5105L10.7996 7.46113H13.2453L15.6741 16.5286L17.6274 9.00772H15.9629V7.46113H30.3642V11.4968H29.1413L29.0224 11.0167C28.6488 9.52327 28.2582 9.00772 27.1201 9.00772H24.3006V12.7591H27.7146C27.8441 13.0228 27.9084 13.3162 27.9015 13.6126C27.9103 13.9204 27.8461 14.2258 27.7146 14.5013H24.3006V18.3594H27.2389C28.343 18.3594 28.8355 17.8616 29.1753 16.2791L29.3111 15.657ZM40.0443 16.2793C39.7045 17.8616 39.229 18.3595 38.1079 18.3595H35.7471V9.00772H37.3607V7.46113H31.7728V9.00772H33.2164V18.3597H31.7729L31.7728 19.9065H41.403V15.657H40.1801L40.0443 16.2793ZM50.7435 16.2793C50.4038 17.8616 49.9282 18.3595 48.8071 18.3595H46.4464V9.00772H48.0598V7.46113H42.472V9.00772H43.9156V18.3597H42.4719V19.9065H52.102V15.657H50.8792L50.7435 16.2793ZM59.6932 12.6169L57.5361 12.1013C56.2793 11.799 55.7527 11.2835 55.7527 10.4122C55.7528 9.36322 56.5511 8.70567 58.1136 8.70567C59.6761 8.70567 60.5933 9.29241 60.9501 10.6791L61.103 11.2837H62.3258V8.20785C60.991 7.48912 59.5127 7.11131 58.0118 7.10531C55.1073 7.10531 53.2393 8.56317 53.2393 10.9101C53.2393 12.7235 54.3262 14.0569 56.4151 14.537L58.5722 15.0348C59.948 15.3547 60.4574 15.9237 60.4574 16.8661C60.4574 18.0218 59.6252 18.6617 57.9607 18.6617C56.0753 18.6617 55.1074 17.8794 54.6826 16.386L54.4619 15.6215H53.2391V19.1062C54.7932 19.9164 56.514 20.3133 58.2494 20.262C61.1028 20.262 62.971 18.7685 62.971 16.4392C62.9711 14.4838 61.8331 13.1324 59.6932 12.6169ZM76.0644 9.00772C77.2023 9.00772 77.5931 9.52321 77.9666 11.0167L78.0855 11.4968H79.3084V7.46113H69.0669V9.00772H70.5106V18.3597H69.0669V19.9065H74.7399V18.3597H73.0413V14.7325H76.5401C76.6716 14.4569 76.7358 14.1516 76.727 13.8437C76.7339 13.5474 76.6697 13.2539 76.5401 12.9903H73.0413V9.00778L76.0644 9.00772ZM101.947 18.5017C102.151 18.9643 102.151 19.4972 101.947 19.9599C101.508 20.0194 101.065 20.049 100.622 20.0486C98.9748 20.0486 98.1764 19.3375 97.9896 17.684L97.9216 17.0618C97.7178 15.2662 97.1572 14.5727 95.289 14.5727H94.3549V18.3597H95.9684V19.9065H85.2861V18.3597H86.6788L85.8974 16.1371H81.4816L80.7003 18.3597H82.127V19.9065H77.626V18.3597H78.8149L82.9761 7.46094H85.235L89.4811 18.3597H91.8239V9.00772H90.3802V7.46113H97.2083C99.6371 7.46113 101.217 8.72346 101.217 10.7503C101.217 12.7593 99.6371 13.8261 98.1084 13.8972V13.9505C99.654 14.075 100.282 14.9816 100.435 16.3863L100.503 17.044C100.605 18.0752 100.809 18.5375 101.59 18.5375C101.71 18.5361 101.829 18.5241 101.947 18.5017ZM85.3541 14.6258L83.6897 9.91449L82.0252 14.6258H85.3541ZM98.652 10.999C98.652 9.70105 97.8879 9.00778 96.3592 9.00778H94.3549V13.008H96.359C97.8706 13.008 98.652 12.2791 98.652 10.999ZM108.795 14.2348C108.784 14.5373 108.848 14.8374 108.982 15.106H111.003V18.2531C110.367 18.5267 109.686 18.6657 108.999 18.6619C106.553 18.6619 105.279 16.8306 105.279 13.666C105.279 10.5014 106.553 8.67007 108.863 8.67007C110.216 8.59722 111.442 9.49944 111.835 10.8569L112.022 11.3547H113.245V8.17201C111.848 7.43935 110.306 7.06172 108.744 7.06978C105.008 7.06978 102.494 9.68338 102.494 13.6838C102.494 17.7019 104.939 20.2623 108.744 20.2623C110.405 20.2161 112.033 19.7656 113.499 18.9464V13.3991H108.981C108.85 13.6557 108.786 13.9439 108.795 14.2348ZM127.702 13.6659C127.691 17.3107 124.865 20.2595 121.383 20.2595C117.902 20.2595 115.076 17.3107 115.065 13.6659C115.076 10.0211 117.902 7.07227 121.383 7.07227C124.865 7.07227 127.691 10.0211 127.702 13.6659ZM124.916 13.6659C124.916 10.5189 123.676 8.68775 121.383 8.68775C119.09 8.68775 117.851 10.519 117.851 13.6659C117.851 16.8305 119.074 18.6441 121.383 18.6441C123.693 18.6441 124.916 16.8305 124.916 13.6659Z" fill="var(--fill-0, white)"/>
</g>
</svg>
