<svg preserveAspectRatio="none" width="100%" height="100%" overflow="visible" style="display: block;" viewBox="0 0 150 61" fill="none" xmlns="http://www.w3.org/2000/svg">
<g id="Frame" clip-path="url(#clip0_0_113)">
<g id="Vector">
<path d="M84 27C80.8617 27 78.5477 28.0028 77 30V28H71V58H77V47C78.5477 48.9972 80.8617 50 84 50C89.7607 50 94 44.4692 94 38C94 31.5308 89.7607 27 84 27ZM82 45C78.6037 45 77 41.6471 77 38C77 34.3529 78.6037 32 82 32C85.4391 32 88 34.3529 88 38C88 41.6471 85.4391 45 82 45Z" fill="#1E428A"/>
</g>
<g id="Vector_2">
<path d="M114 28V30C112.452 28.0398 110.138 27 107 27C101.282 27 97 32.5095 97 39C97 45.4905 101.282 50 107 50C110.138 50 112.452 48.9602 114 47V49H120V28H114ZM108 45C104.604 45 103 42.6591 103 39C103 35.3409 104.604 32 108 32C111.439 32 114 35.3409 114 39C114 42.6591 111.439 45 108 45Z" fill="#1E428A"/>
</g>
<g id="Vector_3">
<path d="M140 28L135 43L129 28H123L132 49C130.938 51.9649 129.141 54.0443 126 54V59C131.618 59.3098 135.7 56.3723 138 50L146 28H140Z" fill="#1E428A"/>
</g>
<g id="Vector_4">
<path d="M79 8C77.2262 8 75.8748 8.90477 75 10V4H72V21H75V19C75.8748 20.0952 77.2262 21 79 21C82.2561 21 85 18.5475 85 15C85 11.4523 82.2561 8 79 8ZM78 18C76.0804 18 75 17 75 15C75 13 76.0804 11 78 11C79.9439 11 82 13 82 15C82 17 79.9439 18 78 18Z" fill="#1E428A"/>
</g>
<g id="Vector_5">
<path d="M90 11V9H87V21H90V15C90 12.5294 92.331 11.8118 94 12V9C92.4306 9 90.6476 9.4 90 11Z" fill="#1E428A"/>
</g>
<g id="Vector_6">
<path d="M98 17H107C107.07 16.5814 107 16.4678 107 16C107 12.3807 104.435 9 101 9C97.3559 9 95 12.3314 95 16C95 19.6685 97.1006 22 101 22C103.228 22 104.909 20.6742 106 19L104 18C103.489 18.714 102.161 19 101 19C99.4217 19 98.4178 18.625 98 17ZM98 14C98.3482 12.4243 99.3985 12 101 12C102.253 12 103.629 12.2273 104 14H98Z" fill="#1E428A"/>
</g>
<g id="Vector_7">
<path d="M119 9V11C118.125 9.89204 116.774 9 115 9C111.768 9 109 12.3314 109 16C109 19.6685 111.768 22 115 22C116.774 22 118.125 21.1079 119 20V22H122V9H119ZM115 19C113.08 19 112 18.0682 112 16C112 13.9318 113.08 12 115 12C116.944 12 119 13.9318 119 16C119 18.0682 116.944 19 115 19Z" fill="#1E428A"/>
</g>
<g id="Vector_8">
<path d="M134 4V10C133.125 8.90477 131.773 8 130 8C126.744 8 124 11.4523 124 15C124 18.5475 126.744 21 130 21C131.773 21 133.125 20.0952 134 19V21H137V4H134ZM131 18C129.057 18 127 17 127 15C127 13 129.057 11 131 11C132.92 11 134 13 134 15C134 17 132.92 18 131 18Z" fill="#1E428A"/>
</g>
<g id="Vector_9">
<path d="M30 0C13.1537 0 0 14.1537 0 31C0 47.8463 13.1537 61 30 61C46.8463 61 61 47.8463 61 31C61.0285 14.1537 46.8747 0 30 0ZM36 53V53C33.3206 54.4537 29.4537 53.6794 28 51L12 20C10.5463 17.3206 11.3206 13.4537 14 12H15C17.6796 10.5463 20.5463 11.2921 22 14L39 45C40.4252 47.708 38.6794 51.5463 36 53ZM43 44L30 20C36.613 16.437 45.4368 19.387 49 26C52.563 32.5846 49.613 40.437 43 44Z" fill="#59BEC9"/>
</g>
<g id="Vector_10">
<path d="M146 49H144V50H145V52V52V50H146V49Z" fill="#1E428A"/>
</g>
<g id="Vector_11">
<path d="M150 49H149V50L148 49H147V52H148V50V51H149V50V52H150V49Z" fill="#1E428A"/>
</g>
</g>
<defs>
<clipPath id="clip0_0_113">
<rect width="150" height="61" fill="white"/>
</clipPath>
</defs>
</svg>
